<svg width="25" height="28" viewBox="0 0 25 28" fill="none" xmlns="http://www.w3.org/2000/svg">
<g id="Agenda Icono">
<path id="Vector" d="M17.2979 3.88593H7.70514C4.00199 3.88593 1 6.90158 1 10.6216V20.258C1 23.9779 4.00199 26.9936 7.70514 26.9936H17.2979C21.001 26.9936 24.003 23.9779 24.003 20.258V10.6216C24.003 6.90158 21.001 3.88593 17.2979 3.88593Z" stroke="#979797" stroke-width="1.5" stroke-linecap="round" stroke-linejoin="round"/>
<path id="Vector_2" d="M7.43164 1.49438V7.27982" stroke="#979797" stroke-width="1.5" stroke-linecap="round" stroke-linejoin="round"/>
<path id="Vector_3" d="M17.7349 1.49438V7.27982" stroke="#979797" stroke-width="1.5" stroke-linecap="round" stroke-linejoin="round"/>
<path id="Vector_4" d="M1 11.2591H24.003" stroke="#979797" stroke-width="1.5" stroke-linecap="round" stroke-linejoin="round"/>
<path id="Vector_5" d="M7.17841 17.3933C7.88046 17.3933 8.44959 16.8216 8.44959 16.1164C8.44959 15.4111 7.88046 14.8394 7.17841 14.8394C6.47635 14.8394 5.90723 15.4111 5.90723 16.1164C5.90723 16.8216 6.47635 17.3933 7.17841 17.3933Z" fill="#979797"/>
<path id="Vector_6" d="M7.17841 22.3247C7.88046 22.3247 8.44959 21.753 8.44959 21.0478C8.44959 20.3425 7.88046 19.7708 7.17841 19.7708C6.47635 19.7708 5.90723 20.3425 5.90723 21.0478C5.90723 21.753 6.47635 22.3247 7.17841 22.3247Z" fill="#979797"/>
<path id="Vector_7" d="M12.7121 17.3933C13.4142 17.3933 13.9833 16.8216 13.9833 16.1164C13.9833 15.4111 13.4142 14.8394 12.7121 14.8394C12.01 14.8394 11.4409 15.4111 11.4409 16.1164C11.4409 16.8216 12.01 17.3933 12.7121 17.3933Z" fill="#979797"/>
<path id="Vector_8" d="M12.7121 22.3247C13.4142 22.3247 13.9833 21.753 13.9833 21.0478C13.9833 20.3425 13.4142 19.7708 12.7121 19.7708C12.01 19.7708 11.4409 20.3425 11.4409 21.0478C11.4409 21.753 12.01 22.3247 12.7121 22.3247Z" fill="#979797"/>
<path id="Vector_9" d="M18.0082 17.3933C18.7103 17.3933 19.2794 16.8216 19.2794 16.1164C19.2794 15.4111 18.7103 14.8394 18.0082 14.8394C17.3062 14.8394 16.7371 15.4111 16.7371 16.1164C16.7371 16.8216 17.3062 17.3933 18.0082 17.3933Z" fill="#979797"/>
<path id="Vector_10" d="M18.0082 22.3247C18.7103 22.3247 19.2794 21.753 19.2794 21.0478C19.2794 20.3425 18.7103 19.7708 18.0082 19.7708C17.3062 19.7708 16.7371 20.3425 16.7371 21.0478C16.7371 21.753 17.3062 22.3247 18.0082 22.3247Z" fill="#979797"/>
</g>
</svg>
