<svg width="46" height="31" viewBox="0 0 46 31" fill="none" xmlns="http://www.w3.org/2000/svg">
<g id="Estado de cuenta icono">
<path id="Vector" d="M40.4858 1H5.16488C2.86468 1 1 2.86468 1 5.16487V24.9453C1 27.2454 2.86468 29.1101 5.16488 29.1101H40.4858C42.786 29.1101 44.6507 27.2454 44.6507 24.9453V5.16487C44.6507 2.86468 42.786 1 40.4858 1Z" stroke="white" stroke-width="2" stroke-linecap="round" stroke-linejoin="round"/>
<path id="Vector_2" d="M1 10.9402H44.6507" stroke="white" stroke-width="2" stroke-linecap="round" stroke-linejoin="round"/>
<path id="Vector_3" d="M1 5.81458H44.6507" stroke="white" stroke-width="2" stroke-linecap="round" stroke-linejoin="round"/>
<path id="Vector_4" d="M25.209 20.8497H28.6853" stroke="white" stroke-width="2" stroke-linecap="round" stroke-linejoin="round"/>
<path id="Vector_5" d="M31.3757 20.8497H34.852" stroke="white" stroke-width="2" stroke-linecap="round" stroke-linejoin="round"/>
<path id="Vector_6" d="M37.5454 20.8497H41.0217" stroke="white" stroke-width="2" stroke-linecap="round" stroke-linejoin="round"/>
<path id="Vector_7" d="M13.1502 23.8541C15.1299 23.8541 16.7348 22.2492 16.7348 20.2695C16.7348 18.2898 15.1299 16.6849 13.1502 16.6849C11.1705 16.6849 9.56567 18.2898 9.56567 20.2695C9.56567 22.2492 11.1705 23.8541 13.1502 23.8541Z" stroke="white" stroke-width="2" stroke-linecap="round" stroke-linejoin="round"/>
<path id="Vector_8" d="M10.5819 23.2433C10.01 23.6292 9.31859 23.8569 8.57725 23.8569C6.59754 23.8569 4.99268 22.252 4.99268 20.2723C4.99268 18.2926 6.59754 16.6877 8.57725 16.6877C9.31859 16.6877 10.01 16.9126 10.5819 17.3014" stroke="white" stroke-width="2" stroke-linecap="round" stroke-linejoin="round"/>
</g>
</svg>
