<svg width="43" height="46" viewBox="0 0 43 46" fill="none" xmlns="http://www.w3.org/2000/svg">
<g id="Icono Consumos">
<path id="Vector" d="M30.1152 1.00303C36.443 1.04746 41.4298 6.08418 41.3798 12.3842C41.3326 18.5677 36.2487 23.585 30.0902 23.5295C23.7513 23.4739 18.8062 18.4539 18.8534 12.1232C18.8978 5.97867 23.9817 0.958609 30.1152 1.00026V1.00303Z" stroke="white" stroke-width="2" stroke-linecap="round" stroke-linejoin="round"/>
<path id="Vector_2" d="M29.0739 5.31781C29.0739 5.62879 29.0545 5.92033 29.0795 6.20632C29.11 6.60337 29.0517 6.84493 28.5547 6.86714C28.2076 6.8838 27.8522 7.04207 27.5329 7.20033C25.5921 8.1527 25.3005 10.6572 27.0165 11.9705C27.619 12.4314 28.3687 12.7007 29.0684 13.0284C29.7986 13.3699 30.5927 13.5948 31.2702 14.0141C32.031 14.4861 31.8866 15.4218 31.0397 15.7328C30.6677 15.8688 30.204 15.9605 29.8375 15.8633C29.0878 15.6634 28.3742 15.3246 27.6828 15.0553C27.2525 15.4884 26.7721 15.9716 26.2834 16.463C26.9693 17.0405 27.7911 17.4626 28.7018 17.6958C28.9878 17.7708 29.1017 17.8985 29.0822 18.1928C29.06 18.5316 29.0767 18.8731 29.0767 19.2118H31.0842C31.0842 18.9064 31.1008 18.6315 31.0786 18.3622C31.0508 18.0179 31.1341 17.8513 31.5256 17.7736C31.9727 17.6847 32.4197 17.5015 32.814 17.271C34.8159 16.1048 34.8631 13.5476 32.9 12.3204C32.4086 12.0149 31.8505 11.815 31.3063 11.6012C30.7149 11.3708 30.0929 11.218 29.5126 10.9626C28.713 10.61 28.377 10.0574 28.5353 9.51323C28.7018 8.93847 29.3877 8.61361 30.2123 8.7219C30.2623 8.72745 30.315 8.73578 30.365 8.75244C31.0814 9.02455 31.7977 9.29943 32.5724 9.59652C32.9334 9.17448 33.3665 8.66637 33.9107 8.03053C33.0555 7.64459 32.2781 7.26142 31.4757 6.94489C31.1869 6.83105 31.0536 6.72831 31.0786 6.41178C31.1036 6.05638 31.0842 5.69542 31.0842 5.31226H29.0767L29.0739 5.31781Z" fill="white"/>
<path id="Vector_3" d="M19.2422 9.28833H7.27512C6.75035 9.28833 6.32275 9.71592 6.32275 10.2407V35.4215" stroke="white" stroke-width="2" stroke-linecap="round" stroke-linejoin="round"/>
<path id="Vector_4" d="M30.0903 23.5294V39.7891C30.0903 42.1436 28.1827 44.0511 25.8282 44.0511C23.4737 44.0511 21.5662 42.1436 21.5662 39.7891V36.696C21.5662 36.1712 21.1386 35.7436 20.6138 35.7436H1.95237C1.42759 35.7436 1 36.1712 1 36.696V37.9232C1 41.3079 3.74326 44.0539 7.1307 44.0539H25.8282" stroke="white" stroke-width="2" stroke-linecap="round" stroke-linejoin="round"/>
<path id="Vector_5" d="M11.7954 19.7672H21.1136" stroke="white" stroke-width="2" stroke-linecap="round" stroke-linejoin="round"/>
<path id="Vector_6" d="M11.7954 24.082H23.6903" stroke="white" stroke-width="2" stroke-linecap="round" stroke-linejoin="round"/>
<path id="Vector_7" d="M11.7954 28.4995H23.6903" stroke="white" stroke-width="2" stroke-linecap="round" stroke-linejoin="round"/>
</g>
</svg>
