<svg width="26" height="24" viewBox="0 0 26 24" fill="none" xmlns="http://www.w3.org/2000/svg">
<path d="M8.83232 14.4461C11.4642 14.4461 13.5978 12.3125 13.5978 9.68058C13.5978 7.04868 11.4642 4.9151 8.83232 4.9151C6.20041 4.9151 4.06683 7.04868 4.06683 9.68058C4.06683 12.3125 6.20041 14.4461 8.83232 14.4461Z" stroke="white" stroke-width="1.5" stroke-linecap="round" stroke-linejoin="round"/>
<path d="M1 22.2784C1 17.9529 4.50676 14.4461 8.83231 14.4461C13.1579 14.4461 16.6646 17.9529 16.6646 22.2784H1Z" stroke="white" stroke-width="1.5" stroke-linecap="round" stroke-linejoin="round"/>
<path d="M12.4044 5.76548C12.4044 3.13436 14.5366 1 17.1698 1C19.8031 1 21.9353 3.13226 21.9353 5.76548C21.9353 8.39871 19.8031 10.531 17.1698 10.531C15.7827 10.531 14.5345 9.93949 13.6652 8.99439" stroke="white" stroke-width="1.5" stroke-linecap="round" stroke-linejoin="round"/>
<path d="M13.9345 11.2255C14.9196 10.7772 16.0163 10.5288 17.1676 10.5288C21.4932 10.5288 24.9999 14.0356 24.9999 18.3611H15.85" stroke="white" stroke-width="1.5" stroke-linecap="round" stroke-linejoin="round"/>
</svg>
