<svg width="40" height="32" viewBox="0 0 40 32" fill="none" xmlns="http://www.w3.org/2000/svg">
<g id="Experiencias Icono">
<path id="Vector" d="M32.9118 10.2712L30.5584 12.4112V6.57645C30.5584 3.49834 28.0627 1 24.9819 1H6.57645C3.4957 1 1 3.4957 1 6.57645V24.9845C1 28.0627 3.4957 30.561 6.57645 30.561H24.9845C28.0627 30.561 30.561 28.0653 30.561 24.9845V19.1498L32.9144 21.2898L35.3495 23.5035C36.741 24.7684 38.9731 23.7802 38.9731 21.9012V9.65984C38.9731 7.77818 36.741 6.79255 35.3495 8.05753L32.9144 10.2712H32.9118Z" stroke="white" stroke-width="2" stroke-linecap="round" stroke-linejoin="round"/>
<path id="Vector_2" d="M15.8846 16.5381C18.241 16.5381 20.1513 14.6279 20.1513 12.2714C20.1513 9.91501 18.241 8.00476 15.8846 8.00476C13.5282 8.00476 11.6179 9.91501 11.6179 12.2714C11.6179 14.6279 13.5282 16.5381 15.8846 16.5381Z" stroke="white" stroke-width="2" stroke-linecap="round" stroke-linejoin="round"/>
<path id="Vector_3" d="M8.86934 23.5561C8.86934 19.6821 12.0107 16.5408 15.8847 16.5408C19.7587 16.5408 22.9001 19.6821 22.9001 23.5561H8.8667H8.86934Z" stroke="white" stroke-width="2" stroke-linecap="round" stroke-linejoin="round"/>
</g>
</svg>
