<svg width="48" height="38" viewBox="0 0 48 38" fill="none" xmlns="http://www.w3.org/2000/svg">
<g id="Handicap Icono">
<path id="Vector" d="M43.152 1L38.5206 10.6653" stroke="white" stroke-width="2" stroke-linecap="round" stroke-linejoin="round"/>
<path id="Vector_2" d="M46.7838 2.39661L42.1525 12.0619" stroke="white" stroke-width="2" stroke-linecap="round" stroke-linejoin="round"/>
<path id="Vector_3" d="M26.698 26.8167C26.698 26.8167 14.9725 19.6226 7.77836 20.1168C7.77836 20.1168 2.45843 19.9197 1.17565 26.8167C1.17565 26.8167 -0.695769 35.388 7.77836 35.6851C10.6882 36.0738 13.6481 36.2376 16.5801 36.271C20.8061 36.3182 26.7646 36.482 30.4325 33.9858C32.34 32.6864 33.2813 30.7206 34.3253 28.7381C36.4882 24.6343 42.2802 14.0222 42.1497 13.5141C42.1497 13.5141 41.5694 11.2178 38.5262 11.1207C37.6127 11.0901 36.7659 11.6093 36.3911 12.4423C34.353 16.9765 29.5496 28.2439 26.6952 26.8167H26.698Z" stroke="white" stroke-width="2" stroke-linecap="round" stroke-linejoin="round"/>
<path id="Vector_4" d="M34.5891 17.1514L39.0872 19.7975" stroke="white" stroke-width="2" stroke-linecap="round" stroke-linejoin="round"/>
<path id="Vector_5" d="M5.87366 25.1451H14.8976" stroke="white" stroke-width="2" stroke-linecap="round" stroke-linejoin="round"/>
<path id="Vector_6" d="M5.87366 28.4854H19.1596" stroke="white" stroke-width="2" stroke-linecap="round" stroke-linejoin="round"/>
<path id="Vector_7" d="M5.87366 31.4425H22.9191" stroke="white" stroke-width="2" stroke-linecap="round" stroke-linejoin="round"/>
</g>
</svg>
