<svg width="23" height="21" viewBox="0 0 23 21" fill="none" xmlns="http://www.w3.org/2000/svg">
<path id="Vector" d="M11.4902 3.58038C11.7623 3.27784 12.0108 2.98098 12.2814 2.70258C13.052 1.91 13.9276 1.23957 15.0369 0.964011C17.1874 0.429941 19.0391 0.992419 20.5004 2.57616C21.8108 3.99514 22.2205 5.69678 21.8922 7.55608C21.5978 9.21226 20.8702 10.7065 19.9561 12.1212C18.4076 14.5189 16.3872 16.4961 14.04 18.1721C13.2828 18.7133 12.4782 19.192 11.6958 19.7005C11.5774 19.7772 11.4709 19.7957 11.3364 19.7175C8.38421 17.9889 5.79739 15.8711 3.76965 13.1624C2.64411 11.6582 1.74781 10.0418 1.25826 8.23645C0.82638 6.64987 0.904769 5.09879 1.73302 3.64572C2.84525 1.69552 4.57719 0.7126 6.90814 0.78362C8.01002 0.81629 8.96103 1.26229 9.82035 1.90431C10.4578 2.38157 10.9932 2.95257 11.4916 3.58038H11.4902Z" stroke="#979797" stroke-width="1.5" stroke-linecap="round" stroke-linejoin="round"/>
</svg>
