<svg width="32" height="22" viewBox="0 0 32 22" fill="none" xmlns="http://www.w3.org/2000/svg">
<g id="Estado de cuenta icono">
<path id="Vector" d="M28.1376 1H3.86241C2.28155 1 1 2.28155 1 3.86241V17.457C1 19.0378 2.28155 20.3194 3.86241 20.3194H28.1376C29.7185 20.3194 31 19.0378 31 17.457V3.86241C31 2.28155 29.7185 1 28.1376 1Z" stroke="#979797" stroke-width="1.5" stroke-linecap="round" stroke-linejoin="round"/>
<path id="Vector_2" d="M1 7.83167H31" stroke="#979797" stroke-width="1.5" stroke-linecap="round" stroke-linejoin="round"/>
<path id="Vector_3" d="M1 4.30896H31" stroke="#979797" stroke-width="1.5" stroke-linecap="round" stroke-linejoin="round"/>
<path id="Vector_4" d="M17.6382 14.6423H20.0273" stroke="#979797" stroke-width="1.5" stroke-linecap="round" stroke-linejoin="round"/>
<path id="Vector_5" d="M21.8765 14.6423H24.2656" stroke="#979797" stroke-width="1.5" stroke-linecap="round" stroke-linejoin="round"/>
<path id="Vector_6" d="M26.1167 14.6423H28.5059" stroke="#979797" stroke-width="1.5" stroke-linecap="round" stroke-linejoin="round"/>
<path id="Vector_7" d="M9.35055 16.707C10.7111 16.707 11.8141 15.604 11.8141 14.2434C11.8141 12.8828 10.7111 11.7798 9.35055 11.7798C7.98995 11.7798 6.88696 12.8828 6.88696 14.2434C6.88696 15.604 7.98995 16.707 9.35055 16.707Z" stroke="#979797" stroke-width="1.5" stroke-linecap="round" stroke-linejoin="round"/>
<path id="Vector_8" d="M7.5855 16.2872C7.19239 16.5524 6.71723 16.7089 6.20772 16.7089C4.84712 16.7089 3.74414 15.6059 3.74414 14.2453C3.74414 12.8847 4.84712 11.7817 6.20772 11.7817C6.71723 11.7817 7.19239 11.9363 7.5855 12.2035" stroke="#979797" stroke-width="1.5" stroke-linecap="round" stroke-linejoin="round"/>
</g>
</svg>
