<svg width="31" height="32" viewBox="0 0 31 32" fill="none" xmlns="http://www.w3.org/2000/svg">
<g id="Settings Icon">
<path id="Vector" d="M1.00205 20.075C1.06136 20.2243 1.10431 20.3838 1.18408 20.5229C2.11472 22.1429 3.05149 23.7587 3.98418 25.3745C4.25621 25.845 4.58347 25.9595 5.08253 25.759C6.18498 25.3173 7.28743 24.8775 8.38783 24.4275C8.53714 24.3662 8.63327 24.3948 8.76827 24.4746C9.46982 24.8959 10.1837 25.2968 10.8893 25.714C10.9752 25.7652 11.0672 25.8695 11.0816 25.9615C11.2636 27.1663 11.4354 28.373 11.6072 29.5798C11.6727 30.0379 11.9345 30.2691 12.3967 30.2691C14.3112 30.2691 16.2256 30.2691 18.1421 30.2691C18.6044 30.2691 18.8621 30.0379 18.9296 29.5757C19.1014 28.3771 19.2753 27.1785 19.443 25.9779C19.4614 25.8409 19.5207 25.7713 19.6455 25.7018C20.3654 25.2968 21.0813 24.8816 21.789 24.4562C21.9097 24.3825 21.9997 24.3662 22.1285 24.4173C23.2208 24.8611 24.3171 25.2988 25.4113 25.7386C25.984 25.9697 26.2602 25.8736 26.5731 25.3316C27.4956 23.7341 28.418 22.1388 29.3405 20.5413C29.6186 20.0586 29.5552 19.7252 29.1134 19.3816C28.1787 18.6494 27.2419 17.9171 26.3052 17.189C26.1968 17.1051 26.1477 17.0274 26.1681 16.8781C26.2786 16.0681 26.2827 15.2561 26.1743 14.4482C26.1477 14.2539 26.2049 14.1537 26.3502 14.0412C27.2788 13.3253 28.1992 12.6013 29.1216 11.8772C29.5511 11.5397 29.6166 11.2002 29.3466 10.7339C28.416 9.12416 27.4853 7.51242 26.5547 5.90272C26.2745 5.41593 25.9534 5.30548 25.4379 5.5141C24.3437 5.95385 23.2474 6.38952 22.1551 6.83745C21.9956 6.9029 21.8954 6.87018 21.7542 6.78632C21.0588 6.36906 20.3573 5.96408 19.6496 5.56933C19.5268 5.50183 19.4614 5.43842 19.4409 5.2973C19.2732 4.09872 19.0994 2.90014 18.9276 1.69951C18.8601 1.22294 18.6064 1 18.1237 1C16.2175 1 14.3091 1 12.4029 1C11.9263 1 11.6706 1.23113 11.6031 1.70565C11.4334 2.91241 11.2616 4.11917 11.0795 5.32388C11.0672 5.4057 10.9895 5.51001 10.9159 5.54274C10.1407 5.88431 9.4146 6.31384 8.7335 6.817C8.62305 6.89881 8.5351 6.90086 8.41442 6.85177C7.30788 6.40179 6.19725 5.95795 5.08867 5.51001C4.57528 5.30343 4.26439 5.4057 3.99031 5.88227C3.05558 7.50014 2.12086 9.11598 1.18613 10.7339C0.910004 11.2125 0.971365 11.5356 1.40703 11.8752C2.3438 12.6074 3.27648 13.3417 4.21735 14.0678C4.34416 14.166 4.38507 14.2601 4.36461 14.4216C4.25621 15.2316 4.25416 16.0436 4.36461 16.8515C4.38711 17.0151 4.33802 17.1072 4.21326 17.2033C3.26217 17.9396 2.31516 18.6842 1.36612 19.4225C1.15545 19.5862 1.02659 19.7846 1 20.073L1.00205 20.075Z" stroke="#898A8D" stroke-width="1.5" stroke-linecap="round" stroke-linejoin="round"/>
<path id="Vector_2" d="M1.0022 20.075C1.02674 19.7866 1.1556 19.5882 1.36832 19.4246C2.31941 18.6862 3.26436 17.9417 4.21545 17.2054C4.34022 17.1093 4.38931 17.0172 4.36681 16.8536C4.25636 16.0436 4.25636 15.2316 4.36681 14.4237C4.38931 14.2621 4.34636 14.168 4.21954 14.0699C3.27868 13.3438 2.346 12.6095 1.40922 11.8772C0.975608 11.5377 0.912202 11.2145 1.18832 10.7359C2.12305 9.11805 3.05778 7.50222 3.99251 5.88434C4.26863 5.40777 4.57953 5.30551 5.09087 5.51209C6.19945 5.96002 7.31008 6.40386 8.41662 6.85384C8.53729 6.90293 8.6232 6.90089 8.73569 6.81907C9.41475 6.31387 10.1409 5.88639 10.9181 5.54481C10.9917 5.51209 11.0694 5.40777 11.0817 5.32596C11.2617 4.12124 11.4335 2.91448 11.6053 1.70772C11.6728 1.2332 11.9285 1.00208 12.4051 1.00208C14.3113 1.00208 16.2197 1.00208 18.1259 1.00208C18.6066 1.00208 18.8623 1.22706 18.9298 1.70159C19.1016 2.90017 19.2754 4.09875 19.4431 5.29937C19.4636 5.4405 19.529 5.50391 19.6518 5.5714C20.3595 5.96616 21.0631 6.37114 21.7564 6.78839C21.8976 6.87225 21.9978 6.90498 22.1573 6.83952C23.2495 6.39159 24.3459 5.95593 25.4401 5.51618C25.9556 5.3096 26.2746 5.42005 26.5569 5.9048C27.4875 7.51449 28.4182 9.12623 29.3488 10.7359C29.6188 11.2023 29.5533 11.5418 29.1238 11.8793C28.2014 12.6033 27.2789 13.3274 26.3524 14.0433C26.2071 14.1558 26.1499 14.256 26.1765 14.4503C26.2849 15.2603 26.2808 16.0723 26.1703 16.8802C26.1499 17.0295 26.199 17.1072 26.3074 17.1911C27.2462 17.9192 28.1809 18.6515 29.1156 19.3837C29.5574 19.7294 29.6208 20.0607 29.3427 20.5434C28.4202 22.1408 27.4978 23.7383 26.5753 25.3336C26.2624 25.8736 25.9862 25.9697 25.4135 25.7407C24.3193 25.3009 23.223 24.8632 22.1307 24.4194C22.0019 24.3662 21.9119 24.3846 21.7912 24.4582C21.0815 24.8837 20.3676 25.2989 19.6477 25.7039C19.5229 25.7734 19.4656 25.8429 19.4452 25.98C19.2775 27.1786 19.1036 28.3771 18.9318 29.5778C18.8663 30.04 18.6086 30.2711 18.1443 30.2711C16.2299 30.2711 14.3154 30.2711 12.3989 30.2711C11.9346 30.2711 11.6749 30.04 11.6094 29.5819C11.4376 28.3751 11.2678 27.1683 11.0838 25.9636C11.0694 25.8716 10.9754 25.7673 10.8915 25.7161C10.1879 25.2989 9.47202 24.898 8.77046 24.4766C8.63547 24.3948 8.53934 24.3682 8.39003 24.4296C7.29167 24.8796 6.18718 25.3173 5.08473 25.7611C4.58566 25.9616 4.25841 25.847 3.98637 25.3766C3.05165 23.7587 2.11487 22.1429 1.18628 20.525C1.10651 20.3859 1.06356 20.2284 1.00424 20.0771L1.0022 20.075ZM20.384 15.6264C20.3799 12.814 18.0912 10.5273 15.2767 10.5171C12.4419 10.5068 10.147 12.8181 10.1511 15.6775C10.1552 18.5001 12.4705 20.752 15.3627 20.748C18.1014 20.7439 20.3901 18.4101 20.384 15.6264Z" stroke="#898A8D" stroke-width="1.5" stroke-linecap="round" stroke-linejoin="round"/>
</g>
</svg>
