<svg width="29" height="31" viewBox="0 0 29 31" fill="none" xmlns="http://www.w3.org/2000/svg">
<g id="Icono Consumos">
<path id="Vector" d="M20.4676 1.00203C24.6987 1.03173 28.0331 4.39951 27.9996 8.61201C27.9681 12.7465 24.5687 16.1013 20.4509 16.0642C16.2124 16.0271 12.9059 12.6704 12.9375 8.43749C12.9672 4.32896 16.3665 0.972324 20.4676 1.00017V1.00203Z" stroke="#979797" stroke-width="1.5" stroke-linecap="round" stroke-linejoin="round"/>
<path id="Vector_2" d="M19.7715 3.88714C19.7715 4.09507 19.7585 4.29001 19.7752 4.48123C19.7956 4.74672 19.7566 4.90824 19.4243 4.92309C19.1922 4.93423 18.9546 5.04005 18.7411 5.14587C17.4434 5.78267 17.2484 7.45727 18.3958 8.33542C18.7986 8.64361 19.2999 8.82369 19.7678 9.04276C20.256 9.27112 20.787 9.4215 21.24 9.70184C21.7487 10.0175 21.6522 10.6431 21.0859 10.851C20.8371 10.942 20.5271 11.0033 20.282 10.9383C19.7808 10.8046 19.3036 10.5781 18.8413 10.398C18.5536 10.6877 18.2324 11.0107 17.9056 11.3393C18.3642 11.7255 18.9138 12.0077 19.5227 12.1636C19.7139 12.2137 19.79 12.2991 19.777 12.4959C19.7622 12.7224 19.7733 12.9508 19.7733 13.1773H21.1156C21.1156 12.9731 21.1268 12.7893 21.1119 12.6092C21.0933 12.379 21.149 12.2676 21.4108 12.2156C21.7097 12.1562 22.0086 12.0337 22.2722 11.8796C23.6108 11.0998 23.6424 9.38994 22.3298 8.56934C22.0012 8.36512 21.628 8.23145 21.2641 8.0885C20.8687 7.93441 20.4528 7.8323 20.0648 7.66149C19.5301 7.42571 19.3055 7.05626 19.4113 6.69238C19.5227 6.30807 19.9813 6.09086 20.5327 6.16326C20.5661 6.16697 20.6014 6.17254 20.6348 6.18368C21.1138 6.36562 21.5927 6.54942 22.1107 6.74807C22.3521 6.46588 22.6417 6.12613 23.0056 5.70098C22.4338 5.44292 21.9139 5.18672 21.3774 4.97507C21.1843 4.89895 21.0952 4.83026 21.1119 4.61861C21.1286 4.38098 21.1156 4.13963 21.1156 3.88342H19.7733L19.7715 3.88714Z" fill="#979797"/>
<path id="Vector_3" d="M13.1976 6.54199H5.19588C4.84499 6.54199 4.55908 6.8279 4.55908 7.17879V24.0158" stroke="#979797" stroke-width="1.5" stroke-linecap="round" stroke-linejoin="round"/>
<path id="Vector_4" d="M20.451 16.0642V26.9361C20.451 28.5105 19.1756 29.7859 17.6012 29.7859C16.0269 29.7859 14.7514 28.5105 14.7514 26.9361V24.868C14.7514 24.5171 14.4655 24.2312 14.1146 24.2312H1.6368C1.28591 24.2312 1 24.5171 1 24.868V25.6885C1 27.9517 2.83427 29.7878 5.09925 29.7878H17.6012" stroke="#979797" stroke-width="1.5" stroke-linecap="round" stroke-linejoin="round"/>
<path id="Vector_5" d="M8.21826 13.5486H14.4488" stroke="#979797" stroke-width="1.5" stroke-linecap="round" stroke-linejoin="round"/>
<path id="Vector_6" d="M8.21826 16.4337H16.1717" stroke="#979797" stroke-width="1.5" stroke-linecap="round" stroke-linejoin="round"/>
<path id="Vector_7" d="M8.21826 19.3875H16.1717" stroke="#979797" stroke-width="1.5" stroke-linecap="round" stroke-linejoin="round"/>
</g>
</svg>
