<svg width="26" height="28" viewBox="0 0 26 28" fill="none" xmlns="http://www.w3.org/2000/svg">
<g id="Notificaciones Icono">
<path id="Vector" d="M12.7543 20.8538C16.3459 20.8538 19.9375 20.8538 23.527 20.8538C23.7103 20.8538 23.9198 20.884 24.0729 20.8095C24.2522 20.7208 24.4778 20.5496 24.512 20.3804C24.5503 20.185 24.4415 19.9252 24.3187 19.7459C24.2119 19.5888 23.9984 19.5042 23.8332 19.3853C22.2439 18.2452 21.1541 16.7566 20.9467 14.7866C20.7855 13.2476 20.8278 11.6865 20.7351 10.1395C20.6908 9.38815 20.6364 8.61666 20.4249 7.90157C19.6696 5.34336 17.9977 3.60095 15.516 2.624C15.1695 2.48903 14.8694 2.35609 14.6377 1.96732C13.826 0.605625 11.7049 0.716414 10.9575 2.09422C10.8548 2.28357 10.601 2.43465 10.3834 2.51119C7.38006 3.58685 5.48658 5.65759 4.96486 8.80802C4.74732 10.1254 4.91652 11.5032 4.8158 12.8468C4.73724 13.9083 4.62243 14.988 4.33035 16.0053C3.87309 17.5986 2.74506 18.7307 1.38739 19.6351C1.0933 19.8305 0.883808 20.1065 1.07114 20.4167C1.19805 20.6242 1.51228 20.7289 1.76005 20.8457C1.86681 20.8961 2.01587 20.8538 2.14479 20.8538C5.67996 20.8538 9.21513 20.8538 12.7523 20.8538H12.7543Z" stroke="#898A8D" stroke-width="1.5" stroke-linecap="round" stroke-linejoin="round"/>
<path id="Vector_2" d="M12.2891 26.4235C11.3403 26.1797 10.4721 25.7889 9.92021 24.9389C9.68453 24.5763 9.51331 24.1593 9.37835 23.7444C9.20915 23.2267 9.33404 23.0837 9.89201 23.0817C11.4974 23.0756 13.1029 23.0797 14.7083 23.0797C14.9117 23.0797 15.1152 23.0897 15.3166 23.0797C16.489 23.0132 16.4165 23.3254 16.0599 24.2339C15.6349 25.3156 14.801 25.9783 13.6951 26.3086C13.5944 26.3389 13.4977 26.3852 13.399 26.4235H12.2871H12.2891Z" stroke="#898A8D" stroke-width="1.5" stroke-linecap="round" stroke-linejoin="round"/>
<path id="Vector_3" d="M12.7544 20.8538C9.21922 20.8538 5.68405 20.8538 2.14687 20.8538C2.01795 20.8538 1.86889 20.8941 1.76213 20.8457C1.51437 20.7309 1.20013 20.6241 1.07323 20.4167C0.883879 20.1065 1.09538 19.8325 1.38948 19.6351C2.74714 18.7307 3.87518 17.5986 4.33243 16.0053C4.62451 14.988 4.73731 13.9063 4.81789 12.8468C4.91861 11.5032 4.7494 10.1254 4.96695 8.80801C5.48866 5.65556 7.38215 3.58482 10.3855 2.51117C10.6031 2.43261 10.8569 2.28355 10.9596 2.09421C11.7069 0.714381 13.828 0.603592 14.6398 1.9673C14.8715 2.35607 15.1716 2.487 15.5181 2.62398C17.9997 3.59892 19.6737 5.34132 20.427 7.90155C20.6385 8.61664 20.6929 9.38814 20.7372 10.1395C20.8299 11.6885 20.7876 13.2476 20.9487 14.7866C21.1562 16.7566 22.244 18.2472 23.8353 19.3853C24.0005 19.5042 24.214 19.5888 24.3207 19.7459C24.4416 19.9252 24.5524 20.185 24.5141 20.3804C24.4819 20.5496 24.2563 20.7188 24.075 20.8095C23.9239 20.884 23.7144 20.8538 23.5291 20.8538C19.9375 20.8538 16.346 20.8538 12.7564 20.8538H12.7544Z" stroke="#898A8D" stroke-width="1.5" stroke-linecap="round" stroke-linejoin="round"/>
</g>
</svg>
