<svg width="28" height="27" viewBox="0 0 28 27" fill="none" xmlns="http://www.w3.org/2000/svg">
<path id="Home Icono" d="M23.2297 17.5946C23.2297 19.1245 23.2315 20.6773 23.2297 22.2283C23.2261 24.6369 21.8753 25.985 19.4267 25.9921C15.7771 26.0026 12.1274 26.0026 8.4795 25.9921C6.1539 25.985 4.78883 24.6351 4.75854 22.3218C4.73893 20.7408 4.75497 19.158 4.75497 17.6034C4.17758 17.4517 3.66969 17.3811 3.21527 17.187C0.772051 16.1336 0.240994 13.1568 2.16919 11.2052C4.36648 8.9819 6.6012 6.79563 8.82165 4.59525C9.59685 3.82768 10.3667 3.05304 11.149 2.29429C12.924 0.5721 15.0535 0.565042 16.8124 2.29429C19.7582 5.1899 22.6826 8.10669 25.6337 10.9952C26.7582 12.0963 27.3053 13.3721 26.8259 14.8984C26.3412 16.4477 25.2113 17.3105 23.5665 17.4817C23.4827 17.4905 23.4025 17.5364 23.2297 17.5946ZM16.1798 20.6773C16.1798 20.6773 16.1745 20.6773 16.1727 20.6773C16.1727 20.2961 16.1869 19.915 16.1691 19.5338C16.1174 18.4292 15.2211 17.584 14.0841 17.5487C12.8527 17.5117 11.8726 18.3551 11.8155 19.5391C11.7834 20.2114 11.7959 20.8872 11.8102 21.5613C11.8387 22.86 12.6994 23.6876 14.0003 23.6893C15.3013 23.6911 16.162 22.8512 16.1798 21.556C16.1834 21.2631 16.1798 20.9702 16.1798 20.6773Z" stroke="#898A8D" stroke-width="1.5" stroke-linecap="round" stroke-linejoin="round"/>
</svg>
