<svg width="512" height="512" version="1.1" xmlns="http://www.w3.org/2000/svg" desc="Created with imagetracer.js version 1.2.6" ><path fill="rgb(0,0,0)" stroke="rgb(0,0,0)" stroke-width="1" opacity="0" d="M 0 0 L 512 0 L 512 512 L 0 512 L 0 0 Z M 74 27 L 70 32 L 70 481 L 71 483 L 74 485 L 440 485 L 442 482 L 442 31 L 441 28 L 439 27 L 74 27 Z " /><path fill="rgb(0,0,0)" stroke="rgb(0,0,0)" stroke-width="1" opacity="0" d="M 81 37 L 431 37 L 431 475 L 81 475 L 81 37 Z M 170 60 L 167 64 L 167 75 L 153 77 L 135 87 Q 123 96 117 110 L 113 123 L 112 138 Q 107 140 105 147 L 105 163 L 107 167 L 115 172 L 231 172 L 236 170 L 240 165 L 241 160 Q 242 149 239 143 L 235 139 L 233 138 L 233 126 L 229 111 L 218 94 Q 209 83 196 78 L 186 75 L 180 75 L 178 74 L 178 63 Q 177 59 170 60 Z M 273 89 Q 269 91 270 98 L 274 100 L 404 100 L 407 97 L 406 90 L 404 89 L 273 89 Z M 273 132 Q 269 134 270 141 L 274 143 L 404 143 L 407 140 L 406 133 L 404 132 L 273 132 Z M 154 200 Q 140 202 132 209 L 118 225 L 114 234 L 112 244 L 112 252 L 111 252 L 107 257 L 106 262 L 107 276 L 112 282 Q 110 298 117 306 L 128 312 L 218 312 L 225 309 Q 230 305 233 298 L 233 282 L 236 280 L 239 275 L 239 259 Q 238 253 233 251 L 232 236 L 223 218 Q 214 206 198 201 L 193 200 L 154 200 Z M 273 229 L 270 232 Q 269 239 273 240 L 404 240 L 406 239 L 407 237 L 406 230 L 404 229 L 273 229 Z M 273 272 L 270 275 Q 269 282 273 283 L 404 283 L 406 282 L 407 280 L 406 273 L 404 272 L 273 272 Z M 144 340 L 141 343 L 141 356 L 142 357 L 142 367 L 143 368 L 143 378 L 144 379 L 144 389 Q 145 397 150 402 Q 155 407 164 409 L 167 410 L 167 441 L 157 442 L 154 446 L 155 451 L 158 452 L 189 452 Q 192 451 191 445 L 187 441 L 179 441 L 178 441 L 178 409 Q 186 409 192 405 Q 199 400 201 390 L 204 349 L 205 348 L 204 343 L 202 340 L 144 340 Z M 274 369 L 270 372 Q 269 379 273 380 L 404 380 L 406 379 L 407 373 L 403 369 L 274 369 Z M 274 412 L 270 415 Q 269 422 273 423 L 404 423 L 406 422 L 407 416 L 404 412 L 274 412 Z " /><path fill="rgb(0,0,0)" stroke="rgb(0,0,0)" stroke-width="1" opacity="0" d="M 168.5 85 L 177.5 85 L 190.5 88 Q 203.2 92.8 211 102.5 Q 217.8 110.2 221 121.5 L 222 137 L 123.5 137 L 123 135.5 L 124 134.5 L 124 124.5 L 126 117.5 Q 131.4 103.4 142.5 95 L 155.5 88 L 168.5 85 Z " /><path fill="rgb(0,0,0)" stroke="rgb(0,0,0)" stroke-width="1" opacity="0" d="M 117.5 148 L 228.5 148 L 230 149.5 Q 231.1 157.7 229 161 L 117.5 161 L 116 159.5 L 116 149.5 L 117.5 148 Z " /><path fill="rgb(0,0,0)" stroke="rgb(0,0,0)" stroke-width="1" opacity="0" d="M 154.5 211 L 191.5 211 Q 206.1 214.4 214 224.5 L 221 237.5 L 222 250 L 123.5 250 Q 122.4 249.9 123 244.5 Q 126 226.5 138.5 218 Q 144.9 212.9 154.5 211 Z M 170 219 L 168 220 Q 164 221 165 227 L 169 230 L 179 230 L 182 225 L 181 222 Q 178 217 170 219 Z M 141 232 L 138 233 L 137 236 L 138 242 L 141 243 Q 149 244 152 242 Q 154 240 153 235 Q 150 230 141 232 Z M 196 232 L 192 237 L 193 241 L 196 243 L 206 243 L 209 239 L 208 235 L 206 232 L 196 232 Z " /><path fill="rgb(0,0,0)" stroke="rgb(0,0,0)" stroke-width="1" opacity="0" d="M 118.5 261 L 227.5 261 L 228 261.5 L 228 271 L 117.5 271 L 117 270.5 L 117 262.5 L 118.5 261 Z " /><path fill="rgb(0,0,0)" stroke="rgb(0,0,0)" stroke-width="1" opacity="0" d="M 123 282 L 221.5 282 L 222 282.5 L 222 294.5 L 217.5 300 L 215.5 301 L 129.5 301 L 125 297.5 L 123 293.5 L 123 282 Z " /><path fill="rgb(0,0,0)" stroke="rgb(0,0,0)" stroke-width="1" opacity="0" d="M 152 351 L 192.5 351 L 193 351.5 L 193 359.5 L 192 360.5 L 190 388.5 L 184.5 396 L 180.5 398 L 165.5 398 L 159 395 L 155 386.5 L 153 355.5 L 152 351 Z " /><path fill="rgb(121,121,121)" stroke="rgb(121,121,121)" stroke-width="1" opacity="0.9411764705882353" d="M 73.5 27 L 438.5 27 L 441 28 L 442 30.5 L 442 481.5 L 439.5 485 L 73.5 485 L 71 482.5 L 70 480.5 L 70 31.5 L 73.5 27 Z M 81 37 L 81 475 L 431 475 L 431 37 L 81 37 Z " /><path fill="rgb(175,175,175)" stroke="rgb(175,175,175)" stroke-width="1" opacity="0.9019607843137255" d="M 169.5 60 Q 176.5 58.5 178 62.5 L 178 75 L 185.5 75 Q 205.3 79.7 217 92.5 L 229 110.5 L 233 125.5 L 233 137.5 L 234.5 139 L 239 142.5 Q 242.4 148.6 241 159.5 L 240 164.5 L 235.5 170 L 230.5 172 L 114.5 172 L 107 166.5 L 105 162.5 L 105 146.5 Q 106.5 140 112 137.5 L 113 122.5 L 118 107.5 Q 124.2 95.2 134.5 87 Q 146.4 76.2 167 75 L 167 63.5 L 169.5 60 Z M 169 85 L 156 88 L 143 95 Q 131 103 126 118 L 124 125 L 124 135 L 123 136 L 124 137 L 222 137 L 221 122 L 212 104 Q 204 93 191 88 L 178 85 L 169 85 Z M 118 148 L 116 150 L 116 160 L 118 161 L 229 161 Q 231 158 230 150 L 229 148 L 118 148 Z " /><path fill="rgb(175,175,175)" stroke="rgb(175,175,175)" stroke-width="1" opacity="0.9019607843137255" d="M 272.5 89 L 403.5 89 L 406 90 L 407 96.5 L 403.5 100 L 273.5 100 L 270 97.5 Q 268.5 90.5 272.5 89 Z " /><path fill="rgb(175,175,175)" stroke="rgb(175,175,175)" stroke-width="1" opacity="0.9019607843137255" d="M 272.5 132 L 403.5 132 L 406 133 L 407 139.5 L 403.5 143 L 273.5 143 L 270 140.5 Q 268.5 133.5 272.5 132 Z " /><path fill="rgb(175,175,175)" stroke="rgb(175,175,175)" stroke-width="1" opacity="0.9019607843137255" d="M 153.5 200 L 192.5 200 L 197.5 201 Q 213.7 205.8 223 217.5 L 232 235.5 L 233 250.5 Q 237.7 252.8 239 258.5 L 239 274.5 L 233 281.5 L 233 297.5 Q 230.4 304.9 224.5 309 L 217.5 312 L 127.5 312 L 117 305.5 Q 110 298 112 281.5 L 107 275.5 L 106 261.5 L 107 256.5 L 110.5 252 L 112 251.5 L 112 243.5 L 114 233.5 L 118 224.5 L 131.5 209 Q 140.4 202.4 153.5 200 Z M 155 211 L 140 217 Q 126 226 123 245 Q 122 250 124 250 L 222 250 L 221 238 L 214 225 Q 206 214 192 211 L 155 211 Z M 119 261 L 117 263 L 117 271 L 118 271 L 228 271 L 228 262 L 228 261 L 119 261 Z M 123 282 L 123 294 L 125 298 L 130 301 L 216 301 L 218 300 L 222 295 L 222 283 L 222 282 L 123 282 Z " /><path fill="rgb(175,175,175)" stroke="rgb(175,175,175)" stroke-width="1" opacity="0.9019607843137255" d="M 169.5 219 Q 178.2 217.3 181 221.5 L 182 224.5 L 178.5 230 L 168.5 230 L 165 226.5 Q 164.4 221.4 167.5 220 L 169.5 219 Z " /><path fill="rgb(175,175,175)" stroke="rgb(175,175,175)" stroke-width="1" opacity="0.9019607843137255" d="M 273.5 229 L 403.5 229 L 406 230 L 407 236.5 L 406 239 L 403.5 240 L 272.5 240 Q 268.5 238.5 270 231.5 L 273.5 229 Z " /><path fill="rgb(175,175,175)" stroke="rgb(175,175,175)" stroke-width="1" opacity="0.9019607843137255" d="M 140.5 232 Q 148.7 230.9 152 233 L 153 239.5 L 152 242 Q 148.7 244.1 140.5 243 L 138 242 L 137 235.5 L 138 233 L 140.5 232 Z " /><path fill="rgb(175,175,175)" stroke="rgb(175,175,175)" stroke-width="1" opacity="0.9019607843137255" d="M 195.5 232 L 205.5 232 L 208 234.5 L 209 238.5 L 205.5 243 Q 196.1 244.9 193 240.5 L 192 236.5 L 195.5 232 Z " /><path fill="rgb(175,175,175)" stroke="rgb(175,175,175)" stroke-width="1" opacity="0.9019607843137255" d="M 273.5 272 L 403.5 272 L 406 273 L 407 279.5 L 406 282 L 403.5 283 L 273.5 283 L 270 280.5 Q 268.5 274.5 271.5 273 L 273.5 272 Z " /><path fill="rgb(175,175,175)" stroke="rgb(175,175,175)" stroke-width="1" opacity="0.9019607843137255" d="M 143.5 340 L 201.5 340 L 204 342.5 L 205 347.5 L 204 348.5 L 201 389.5 Q 198.9 399.9 191.5 405 Q 186.3 409 178 409 L 178 440.5 L 178.5 441 L 186.5 441 L 191 444.5 Q 192.3 450.8 188.5 452 L 157.5 452 L 155 451 L 154 445.5 L 156.5 442 L 167 441 L 167 409.5 L 163.5 409 Q 154.9 407.1 150 401.5 Q 145.3 396.7 144 388.5 L 144 378.5 L 143 377.5 L 143 367.5 L 142 366.5 L 142 356.5 L 141 355.5 L 141 342.5 L 143.5 340 Z M 152 351 L 153 356 L 155 387 L 159 395 L 166 398 L 181 398 L 185 396 L 190 389 L 192 361 L 193 360 L 193 352 L 193 351 L 152 351 Z " /><path fill="rgb(175,175,175)" stroke="rgb(175,175,175)" stroke-width="1" opacity="0.9019607843137255" d="M 273.5 369 L 402.5 369 L 407 372.5 L 406 379 L 403.5 380 L 272.5 380 Q 268.5 378.5 270 371.5 L 273.5 369 Z " /><path fill="rgb(175,175,175)" stroke="rgb(175,175,175)" stroke-width="1" opacity="0.9019607843137255" d="M 273.5 412 L 403.5 412 L 407 415.5 L 406 422 L 403.5 423 L 272.5 423 Q 268.5 421.5 270 414.5 L 273.5 412 Z " /></svg>