<svg width="21" height="26" viewBox="0 0 21 26" fill="none" xmlns="http://www.w3.org/2000/svg">
<g id="Torneo Icono">
<path id="Vector" d="M10.5 25.1747C15.7467 25.1747 20 22.9235 20 20.1466C20 17.3697 15.7467 15.1185 10.5 15.1185C5.25329 15.1185 1 17.3697 1 20.1466C1 22.9235 5.25329 25.1747 10.5 25.1747Z" stroke="#898A8D" stroke-width="1.5" stroke-linecap="round" stroke-linejoin="round"/>
<path id="Vector_2" d="M10.5 20.1465V4.29041" stroke="#898A8D" stroke-width="1.5" stroke-linecap="round" stroke-linejoin="round"/>
<path id="Vector_3" d="M10.5 6.09571V2.35711C10.5 1.31325 11.6298 0.662373 12.5333 1.18343L15.7719 3.0536L19.0105 4.92378C19.914 5.44483 19.914 6.75009 19.0105 7.27114L15.7719 9.14132L12.5333 11.0115C11.6298 11.5325 10.5 10.8817 10.5 9.83781V6.09746V6.09571Z" stroke="#898A8D" stroke-width="1.5" stroke-linecap="round" stroke-linejoin="round"/>
</g>
</svg>
