<svg width="29" height="23" viewBox="0 0 29 23" fill="none" xmlns="http://www.w3.org/2000/svg">
<g id="Experiencias Icono">
<path id="Vector" d="M23.1951 7.44829L21.5583 8.93664V4.87851C21.5583 2.73763 19.8225 1 17.6798 1H4.87851C2.7358 1 1 2.7358 1 4.87851V17.6816C1 19.8225 2.7358 21.5601 4.87851 21.5601H17.6816C19.8225 21.5601 21.5601 19.8243 21.5601 17.6816V13.6235L23.1969 15.1118L24.8906 16.6515C25.8584 17.5313 27.4109 16.844 27.4109 15.5371V7.02305C27.4109 5.71433 25.8584 5.02881 24.8906 5.90862L23.1969 7.44829H23.1951Z" stroke="#979797" stroke-width="1.5" stroke-linecap="round" stroke-linejoin="round"/>
<path id="Vector_2" d="M11.3525 11.807C12.9915 11.807 14.3201 10.4784 14.3201 8.83948C14.3201 7.20056 12.9915 5.87195 11.3525 5.87195C9.71362 5.87195 8.38501 7.20056 8.38501 8.83948C8.38501 10.4784 9.71362 11.807 11.3525 11.807Z" stroke="#979797" stroke-width="1.5" stroke-linecap="round" stroke-linejoin="round"/>
<path id="Vector_3" d="M6.47302 16.6882C6.47302 13.9938 8.65789 11.8089 11.3523 11.8089C14.0467 11.8089 16.2316 13.9938 16.2316 16.6882H6.47119H6.47302Z" stroke="#979797" stroke-width="1.5" stroke-linecap="round" stroke-linejoin="round"/>
</g>
</svg>
