<svg width="32" height="27" viewBox="0 0 32 27" fill="none" xmlns="http://www.w3.org/2000/svg">
<g id="Noticias Icono">
<path id="Vector" d="M21.5808 1C22.6449 1.33527 23.3256 2.10248 23.8402 3.04452C24.7854 4.77845 25.2037 6.6687 25.419 8.60626C25.7716 11.7841 25.6035 14.9352 24.525 17.965C24.1744 18.9461 23.6311 19.9128 22.9709 20.715C21.9457 21.9614 20.2255 21.9573 19.0241 20.8857C17.6463 19.6577 16.2623 18.438 14.8804 17.2163C14.2428 16.6527 13.5395 16.3524 12.6517 16.4367C11.8624 16.5128 11.0586 16.4532 10.218 16.4532V6.15037C11.1509 6.15037 12.0961 6.11952 13.0372 6.16271C13.6297 6.18945 14.1259 6.01667 14.5544 5.64644C16.0081 4.39176 17.4412 3.11239 18.9051 1.86799C19.3009 1.53067 19.7765 1.28796 20.2153 1C20.6725 1 21.1277 1 21.5849 1H21.5808Z" stroke="#898A8D" stroke-width="1.5" stroke-linecap="round" stroke-linejoin="round"/>
<path id="Vector_2" d="M1 10.7289C1.06561 10.4739 1.12507 10.2188 1.19683 9.96377C1.77296 7.88634 3.46446 6.43626 5.59473 6.22851C6.31028 6.15858 7.03404 6.15858 7.80085 6.12567V16.3729C4.36455 16.9489 1.62944 15.2314 1.08406 12.1317C1.07586 12.0803 1.0287 12.0371 1.00205 11.9877C1.00205 11.5681 1.00205 11.1485 1.00205 10.7289H1Z" stroke="#898A8D" stroke-width="1.5" stroke-linecap="round" stroke-linejoin="round"/>
<path id="Vector_3" d="M6.40664 25.4457C5.4635 25.0981 5.00424 24.4646 5.03704 23.4115C5.0883 21.7783 5.05139 20.1431 5.05139 18.5285H11.8297C11.8297 19.5261 11.3212 20.0691 10.1525 20.3468C10.1525 21.3546 10.1136 22.381 10.1628 23.4053C10.212 24.4523 9.74454 25.094 8.8014 25.4437H6.40459L6.40664 25.4457Z" stroke="#898A8D" stroke-width="1.5" stroke-linecap="round" stroke-linejoin="round"/>
<path id="Vector_4" d="M31.1127 12.3333C30.5776 14.1906 29.7042 15.8032 27.8384 16.8337V5.82538C29.6939 6.81061 30.6288 8.45198 31.1127 10.4307V12.3333Z" stroke="#898A8D" stroke-width="1.5" stroke-linecap="round" stroke-linejoin="round"/>
</g>
</svg>
