<?xml version="1.0" encoding="iso-8859-1"?>
<!-- Uploaded to: SVG Repo, www.svgrepo.com, Generator: SVG Repo Mixer Tools -->
<!DOCTYPE svg PUBLIC "-//W3C//DTD SVG 1.1//EN" "http://www.w3.org/Graphics/SVG/1.1/DTD/svg11.dtd">
<svg fill="#898A8D" version="1.1" id="Capa_1" xmlns="http://www.w3.org/2000/svg" xmlns:xlink="http://www.w3.org/1999/xlink"
	 width="30" height="30" viewBox="0 0 87.497 87.497"
	 xml:space="preserve">
<g>
	<g>
		<path d="M86.852,9.085l-21.33-8.15c-0.519-0.199-1.094,0.061-1.291,0.577c-0.08,0.205-0.086,0.42-0.031,0.617
			c-0.021,0.083-0.032,0.17-0.032,0.261v19.075v46.877c-5.313,0.15-10.665,1.505-10.665,4.28c0,2.95,6.047,4.295,11.665,4.295
			c5.616,0,11.663-1.345,11.663-4.295c0-2.775-5.354-4.13-10.663-4.28V22.063L86.971,10.9c0.348-0.185,0.553-0.555,0.523-0.945
			C87.469,9.565,87.219,9.226,86.852,9.085z M55.5,72.623c0-0.63,3.03-2.118,8.665-2.279v4.533c0,0.01,0.005,0.018,0.005,0.024
			C58.532,74.741,55.5,73.252,55.5,72.623z M74.829,72.623c0,0.63-3.031,2.118-8.67,2.278c0-0.008,0.006-0.019,0.006-0.023v-4.532
			C71.8,70.504,74.829,71.994,74.829,72.623z M66.165,19.794V3.322l17.931,6.851L66.165,19.794z"/>
		<path d="M27.361,0.87h-6.417c-0.013,0-0.022,0.006-0.034,0.007c-0.066,0.002-0.129,0.024-0.194,0.039
			c-0.065,0.016-0.132,0.026-0.192,0.054c-0.012,0.005-0.023,0.004-0.034,0.009l-8.497,4.335C11.9,5.36,11.819,5.422,11.747,5.493
			c-0.011,0.01-0.017,0.024-0.027,0.035c-0.068,0.074-0.124,0.158-0.168,0.249c-0.015,0.032-0.025,0.064-0.038,0.097
			c-0.029,0.086-0.048,0.174-0.054,0.267c-0.001,0.022-0.013,0.041-0.013,0.064v21.544H5.683c-0.552,0-1,0.448-1,1v18.597H1
			c-0.552,0-1,0.447-1,1v31.907c0,0.554,0.448,1,1,1h33.816c0.552,0,1-0.446,1-1V73.46c3.616-0.49,6.417-3.592,6.417-7.341v-27.14
			c0-3.749-2.801-6.85-6.417-7.341v-2.891c0-0.552-0.448-1-1-1H22.812v-5.282h13.22c0.552,0,1-0.448,1-1v-7.804
			c0-0.046-0.021-0.084-0.026-0.128C37,13.49,37.01,13.447,36.998,13.402c-0.006-0.023-0.023-0.04-0.031-0.062
			c-0.021-0.065-0.055-0.122-0.089-0.18c-0.033-0.055-0.063-0.109-0.104-0.156c-0.041-0.046-0.088-0.081-0.137-0.119
			c-0.054-0.042-0.104-0.082-0.166-0.112c-0.052-0.026-0.106-0.04-0.163-0.056c-0.069-0.02-0.137-0.038-0.211-0.043
			c-0.022-0.002-0.042-0.013-0.064-0.013c-0.045,0-0.083,0.02-0.126,0.026c-0.045,0.006-0.088-0.003-0.133,0.009l-14.221,3.815
			c-0.022,0.006-0.039,0.023-0.062,0.031c-0.066,0.023-0.123,0.055-0.183,0.091c-0.054,0.032-0.106,0.063-0.152,0.103
			c-0.048,0.042-0.085,0.092-0.124,0.143c-0.039,0.051-0.077,0.1-0.106,0.157c-0.027,0.055-0.043,0.113-0.06,0.174
			c-0.02,0.066-0.036,0.13-0.04,0.2c-0.002,0.023-0.014,0.043-0.014,0.067V27.75h-7.364V7.614l3.964,1.385
			c0.513,0.399,2.039,1.38,4.62,1.38c0.697,0,1.47-0.072,2.321-0.245c1.522-0.311,2.652-1.032,3.355-2.144
			c1.027-1.621,0.753-3.534,0.652-4.056V1.87C28.361,1.316,27.913,0.87,27.361,0.87z M22.812,18.244l12.22-3.278v5.5h-12.22V18.244z
			 M40.234,38.98v27.14c0,2.646-1.906,4.85-4.417,5.319V33.661C38.328,34.13,40.234,36.335,40.234,38.98z M33.818,79.253H2.002
			V49.345h3.684c0.552,0,1-0.447,1-1V29.749h27.132V79.253z M26.013,6.93c-0.407,0.637-1.083,1.043-2.061,1.243
			c-3.62,0.738-5.292-0.729-5.353-0.783c-0.104-0.099-0.227-0.174-0.361-0.221l-3.253-1.137l6.198-3.163h5.177v1.168
			c0,0.077,0.01,0.158,0.026,0.233C26.392,4.286,26.736,5.801,26.013,6.93z"/>
		<path d="M14.278,45.049v25.752c0,3.134,2.549,5.683,5.682,5.683c3.133,0,5.683-2.549,5.683-5.683V45.049
			c0-3.133-2.549-5.683-5.683-5.683C16.826,39.367,14.278,41.917,14.278,45.049z M23.643,45.049v25.752
			c0,2.03-1.651,3.683-3.683,3.683c-2.03,0-3.682-1.649-3.682-3.683V45.049c0-2.03,1.651-3.683,3.682-3.683
			C21.991,41.368,23.643,43.02,23.643,45.049z"/>
		<path d="M18.96,45.224v22.371c0,0.553,0.448,1,1,1c0.552,0,1-0.447,1-1V45.224c0-0.553-0.448-1-1-1
			C19.408,44.224,18.96,44.67,18.96,45.224z"/>
		<path d="M1.002,86.628h33.816c0.552,0,1-0.447,1-1c0-0.552-0.448-1-1-1H1.002c-0.552,0-1,0.448-1,1
			C0.002,86.181,0.449,86.628,1.002,86.628z"/>
	</g>
</g>
</svg>