<svg width="16" height="16" viewBox="0 0 16 16" fill="none" xmlns="http://www.w3.org/2000/svg">
<g id="message">
<path id="Vector" d="M6.0354 12.6728H5.72449C3.23724 12.6728 1.99362 12.0507 1.99362 8.94047V5.83021C1.99362 3.342 3.23724 2.0979 5.72449 2.0979H10.699C13.1862 2.0979 14.4298 3.342 14.4298 5.83021V8.94047C14.4298 11.4287 13.1862 12.6728 10.699 12.6728H10.3881C10.1953 12.6728 10.0088 12.7661 9.89062 12.9216L8.95791 14.1657C8.54751 14.7131 7.87596 14.7131 7.46556 14.1657L6.53284 12.9216C6.43335 12.7848 6.20328 12.6728 6.0354 12.6728Z" stroke="#025275" stroke-width="1.5" stroke-miterlimit="10" stroke-linecap="round" stroke-linejoin="round"/>
<path id="Vector_2" d="M10.6968 7.69628H10.7024" stroke="#025275" stroke-width="2" stroke-linecap="round" stroke-linejoin="round"/>
<path id="Vector_3" d="M8.20892 7.69628H8.2145" stroke="#025275" stroke-width="2" stroke-linecap="round" stroke-linejoin="round"/>
<path id="Vector_4" d="M5.72106 7.69628H5.72665" stroke="#025275" stroke-width="2" stroke-linecap="round" stroke-linejoin="round"/>
</g>
</svg>
