<svg width="16" height="17" viewBox="0 0 16 17" fill="none" xmlns="http://www.w3.org/2000/svg">
<g id="File icon">
<path id="Vector" d="M5 10.0367V8.499C5 7.76723 5.86815 7.31037 6.56208 7.67559L8.02082 8.44375L9.47955 9.21191C10.1735 9.57713 10.1735 10.4922 9.47955 10.8587L8.02082 11.6269L6.56208 12.3951C5.86815 12.7603 5 12.3034 5 11.5717V10.034V10.0367Z" stroke="#025275" stroke-width="1.5" stroke-linecap="round" stroke-linejoin="round"/>
<path id="Vector_2" d="M15 7.71134V13.2436C15 14.4946 13.989 15.5094 12.7426 15.5094H3.25742C2.01101 15.5094 1 14.4946 1 13.2436V3.84126C1 2.59021 2.01101 1.57544 3.25742 1.57544H8.8433" stroke="#025275" stroke-width="1.5" stroke-linecap="round" stroke-linejoin="round"/>
<path id="Vector_3" d="M9 1.57544V5.43048C9 6.59976 9.94495 7.54714 11.1112 7.54714H15L9 1.57544Z" stroke="#025275" stroke-width="1.5" stroke-linecap="round" stroke-linejoin="round"/>
</g>
</svg>
