<svg width="41" height="34" viewBox="0 0 41 34" fill="none" xmlns="http://www.w3.org/2000/svg">
<g id="Icono Noticias">
<path id="Vector" d="M27.4539 1C28.8216 1.42957 29.6966 2.41256 30.3581 3.61956C31.573 5.84118 32.1106 8.26309 32.3873 10.7456C32.8406 14.8173 32.6245 18.8547 31.2383 22.7366C30.7876 23.9936 30.0893 25.2323 29.2407 26.2601C27.923 27.8571 25.7119 27.8518 24.1676 26.4788C22.3966 24.9055 20.6177 23.3427 18.8415 21.7773C18.0219 21.0552 17.1179 20.6704 15.9768 20.7785C14.9622 20.876 13.9291 20.7996 12.8486 20.7996V7.59898C14.0477 7.59898 15.2626 7.55945 16.4723 7.61479C17.2339 7.64905 17.8717 7.42768 18.4225 6.95331C20.2909 5.34573 22.1331 3.70653 24.0147 2.11213C24.5233 1.67993 25.1348 1.36895 25.6987 1C26.2864 1 26.8715 1 27.4592 1H27.4539Z" stroke="white" stroke-width="2" stroke-linecap="round" stroke-linejoin="round"/>
<path id="Vector_2" d="M1 13.4654C1.08433 13.1386 1.16076 12.8118 1.253 12.485C1.99354 9.82326 4.16772 7.96532 6.90588 7.69915C7.82562 7.60955 8.75591 7.60955 9.74154 7.56738V20.6968C5.32465 21.4347 1.80906 19.2342 1.10805 15.2627C1.09751 15.1968 1.0369 15.1414 1.00264 15.0782C1.00264 14.5406 1.00264 14.003 1.00264 13.4654H1Z" stroke="white" stroke-width="2" stroke-linecap="round" stroke-linejoin="round"/>
<path id="Vector_3" d="M7.94955 32.3215C6.73728 31.8761 6.14695 31.0644 6.18912 29.7151C6.255 27.6226 6.20757 25.5275 6.20757 23.4587H14.9201C14.9201 24.7369 14.2665 25.4326 12.7644 25.7884C12.7644 27.0797 12.7143 28.3948 12.7776 29.7072C12.8408 31.0486 12.2399 31.8709 11.0277 32.3189H7.94692L7.94955 32.3215Z" stroke="white" stroke-width="2" stroke-linecap="round" stroke-linejoin="round"/>
<path id="Vector_4" d="M39.7058 15.5209C39.0179 17.9007 37.8953 19.9668 35.4971 21.2871V7.18262C37.8821 8.44496 39.0838 10.548 39.7058 13.0832V15.5209Z" stroke="white" stroke-width="2" stroke-linecap="round" stroke-linejoin="round"/>
</g>
</svg>
