<svg width="29" height="29" viewBox="0 0 29 29" fill="none" xmlns="http://www.w3.org/2000/svg">
<g id="Subir Foto Icono">
<path id="Vector" d="M22.0511 1H6.94889C3.66341 1 1 3.66341 1 6.94889V22.0511C1 25.3366 3.66341 28 6.94889 28H22.0511C25.3366 28 28 25.3366 28 22.0511V6.94889C28 3.66341 25.3366 1 22.0511 1Z" stroke="#979797" stroke-width="1.5" stroke-linecap="round" stroke-linejoin="round"/>
<path id="Vector_2" d="M1 21.9948H28" stroke="#979797" stroke-width="1.5" stroke-linecap="round" stroke-linejoin="round"/>
<path id="Vector_3" d="M8.39871 11.0753C10.1663 11.0753 11.5993 9.64231 11.5993 7.87469C11.5993 6.10707 10.1663 4.67413 8.39871 4.67413C6.63109 4.67413 5.19815 6.10707 5.19815 7.87469C5.19815 9.64231 6.63109 11.0753 8.39871 11.0753Z" stroke="#979797" stroke-width="1.5" stroke-linecap="round" stroke-linejoin="round"/>
<path id="Vector_4" d="M18.8311 21.9948L10.0097 14.7629C9.0703 13.9924 7.71943 13.9827 6.76838 14.7396L1 19.3357" stroke="#979797" stroke-width="1.5" stroke-linecap="round" stroke-linejoin="round"/>
<path id="Vector_5" d="M28 15.2541L22.3325 10.9724C21.4222 10.2834 20.1665 10.2776 19.2465 10.9549L11.9409 16.3448" stroke="#979797" stroke-width="1.5" stroke-linecap="round" stroke-linejoin="round"/>
</g>
</svg>
