<svg width="512" height="512" version="1.1" xmlns="http://www.w3.org/2000/svg" desc="Created with imagetracer.js version 1.2.6" ><path fill="rgb(0,0,0)" stroke="rgb(0,0,0)" stroke-width="1" opacity="0.984313725490196" d="M 135.5 69 Q 153.3 68.3 160 78.5 L 165 88.5 L 165 103 L 192 103 L 192 88.5 Q 194.8 79.3 201.5 74 L 212.5 69 L 221.5 69 Q 233.4 71.6 239 80.5 Q 244.9 88.4 243 103 L 269 103 L 269 90.5 Q 271.6 78.6 280.5 73 L 290.5 69 L 299.5 69 Q 309.6 71.4 315 78.5 L 320 88.5 L 320 103 L 347 103 L 347 88.5 Q 349.8 79.3 356.5 74 L 367.5 69 L 376.5 69 Q 388.4 71.6 394 80.5 Q 400 88.8 398 104 L 402.5 104 L 414.5 108 Q 425.7 113.8 433 123.5 L 438 131.5 L 443 148.5 L 443 397.5 Q 439.1 421.6 422.5 433 L 412.5 439 L 397.5 443 L 114.5 443 Q 90.4 439.1 79 422.5 L 73 412.5 L 69 397.5 L 69 148.5 L 74 131.5 Q 79.8 120.3 89.5 113 L 102.5 106 L 114 104 Q 111.5 80.8 125.5 73 L 135.5 69 Z M 138 83 L 131 86 L 128 93 L 128 128 L 131 134 L 137 137 L 146 136 L 151 130 L 151 91 L 150 89 L 143 83 L 138 83 Z M 215 83 L 211 85 L 206 91 L 206 130 L 207 132 L 215 137 Q 222 138 225 135 L 229 128 L 229 93 L 228 90 Q 225 82 215 83 Z M 293 83 L 286 86 L 283 93 L 283 128 L 286 134 L 292 137 L 301 136 L 306 130 L 306 91 L 305 89 L 298 83 L 293 83 Z M 370 83 L 366 85 L 361 91 L 361 130 L 362 132 L 370 137 Q 377 138 380 135 L 384 128 L 384 93 L 383 90 Q 380 82 370 83 Z M 165 117 L 165 132 L 161 141 Q 155 148 145 151 L 135 151 L 129 149 L 121 144 L 115 134 L 114 118 Q 104 118 99 124 Q 86 132 83 150 L 83 176 L 84 176 L 429 176 L 429 150 Q 427 140 423 134 Q 415 121 398 118 Q 400 132 394 140 Q 388 148 378 151 L 368 151 L 357 146 Q 349 141 347 132 L 347 117 L 320 117 L 320 132 L 315 142 Q 310 149 300 151 L 290 151 L 281 147 Q 272 141 269 130 L 269 117 L 243 117 Q 245 132 239 140 Q 233 148 223 151 L 213 151 L 202 146 Q 195 141 192 132 L 192 117 L 165 117 Z M 83 190 L 83 397 Q 85 410 93 418 Q 101 426 116 429 L 397 429 Q 410 427 418 419 Q 426 411 429 397 L 429 190 L 83 190 Z " /><path fill="rgb(0,0,0)" stroke="rgb(0,0,0)" stroke-width="1" opacity="0.984313725490196" d="M 133.5 225 L 172.5 225 L 183 233.5 L 185 238.5 L 185 276.5 L 178.5 286 L 170.5 290 L 135.5 290 Q 127.9 288.6 124 283.5 L 120 275.5 L 120 238.5 Q 122.6 231.1 128.5 227 L 133.5 225 Z M 137 239 L 134 242 L 134 274 L 138 276 L 169 276 L 171 274 L 171 242 L 169 239 L 137 239 Z " /><path fill="rgb(0,0,0)" stroke="rgb(0,0,0)" stroke-width="1" opacity="0.984313725490196" d="M 236.5 225 L 275.5 225 L 285 231.5 L 289 241.5 L 289 273.5 Q 287.3 282.8 280.5 287 L 273.5 290 L 238.5 290 Q 230.2 287.9 226 281.5 L 223 273.5 L 223 241.5 L 225 234.5 L 230.5 228 L 236.5 225 Z M 240 239 L 237 243 L 237 273 L 241 276 L 272 276 L 275 273 L 275 243 L 274 241 L 273 239 L 240 239 Z " /><path fill="rgb(0,0,0)" stroke="rgb(0,0,0)" stroke-width="1" opacity="0.984313725490196" d="M 385.5 232 Q 392.4 231.1 394 235.5 L 395 239.5 L 394 242.5 L 354.5 282 L 346.5 281 L 326 260.5 L 324 254.5 L 326 250 Q 328.4 248.3 334.5 249 L 351.5 265 L 385.5 232 Z " /><path fill="rgb(0,0,0)" stroke="rgb(0,0,0)" stroke-width="1" opacity="0.984313725490196" d="M 134.5 321 L 170.5 321 Q 178.2 322.9 182 328.5 L 185 334.5 L 185 372.5 Q 182.9 380.4 176.5 384 L 171.5 386 L 133.5 386 Q 126.8 383.8 123 378.5 L 120 371.5 L 120 335.5 L 126.5 325 L 134.5 321 Z M 137 335 L 134 338 L 134 370 L 137 372 L 169 372 L 171 370 L 171 338 L 169 335 L 137 335 Z " /><path fill="rgb(0,0,0)" stroke="rgb(0,0,0)" stroke-width="1" opacity="0.984313725490196" d="M 237.5 321 L 274.5 321 Q 281.9 323.6 286 329.5 L 289 337.5 L 289 369.5 Q 287.3 377.3 282.5 382 L 275.5 386 L 236.5 386 L 227 379.5 L 223 369.5 L 223 337.5 Q 224.8 328.3 231.5 324 L 237.5 321 Z M 241 335 L 238 336 L 237 339 L 237 369 L 238 371 L 240 372 L 273 372 L 275 369 L 275 339 L 272 335 L 241 335 Z " /><path fill="rgb(0,0,0)" stroke="rgb(0,0,0)" stroke-width="1" opacity="0.984313725490196" d="M 341.5 321 L 377.5 321 L 388 327.5 L 392 335.5 L 392 371.5 Q 390.1 379.1 384.5 383 L 378.5 386 L 340.5 386 Q 332.6 383.9 329 377.5 L 327 372.5 L 327 334.5 Q 329.3 327.8 334.5 324 L 341.5 321 Z M 344 335 L 341 338 L 341 370 L 344 372 L 376 372 L 378 370 L 378 338 L 376 335 L 344 335 Z " /><path fill="rgb(0,0,0)" stroke="rgb(0,0,0)" stroke-width="1" opacity="0" d="M 0 0 L 512 0 L 512 512 L 0 512 L 0 0 Z M 136 69 L 126 73 Q 111 81 114 104 L 103 106 L 90 113 Q 80 120 74 132 L 69 149 L 69 398 L 73 413 L 79 423 Q 90 439 115 443 L 398 443 L 413 439 L 423 433 Q 439 422 443 398 L 443 149 L 438 132 L 433 124 Q 426 114 415 108 L 403 104 L 398 104 Q 400 89 394 81 Q 388 72 377 69 L 368 69 L 357 74 Q 350 79 347 89 L 347 103 L 320 103 L 320 89 L 315 79 Q 310 71 300 69 L 291 69 L 281 73 Q 272 79 269 91 L 269 103 L 243 103 Q 245 88 239 81 Q 233 72 222 69 L 213 69 L 202 74 Q 195 79 192 89 L 192 103 L 165 103 L 165 89 L 160 79 Q 153 68 136 69 Z " /><path fill="rgb(0,0,0)" stroke="rgb(0,0,0)" stroke-width="1" opacity="0" d="M 137.5 83 L 142.5 83 L 150 88.5 L 151 90.5 L 151 129.5 L 145.5 136 L 136.5 137 L 131 133.5 L 128 127.5 L 128 92.5 L 131 86 L 137.5 83 Z " /><path fill="rgb(0,0,0)" stroke="rgb(0,0,0)" stroke-width="1" opacity="0" d="M 214.5 83 Q 225.1 82.4 228 89.5 L 229 92.5 L 229 127.5 L 224.5 135 Q 221.5 138 214.5 137 L 207 131.5 L 206 129.5 L 206 90.5 L 210.5 85 L 214.5 83 Z " /><path fill="rgb(0,0,0)" stroke="rgb(0,0,0)" stroke-width="1" opacity="0" d="M 292.5 83 L 297.5 83 L 305 88.5 L 306 90.5 L 306 129.5 L 300.5 136 L 291.5 137 L 286 134 L 283 127.5 L 283 92.5 L 286 86 L 292.5 83 Z " /><path fill="rgb(0,0,0)" stroke="rgb(0,0,0)" stroke-width="1" opacity="0" d="M 369.5 83 Q 380.1 82.4 383 89.5 L 384 92.5 L 384 127.5 L 379.5 135 Q 376.5 138 369.5 137 L 362 131.5 L 361 129.5 L 361 90.5 L 365.5 85 L 369.5 83 Z " /><path fill="rgb(0,0,0)" stroke="rgb(0,0,0)" stroke-width="1" opacity="0" d="M 165 117 L 192 117 L 192 131.5 Q 194.8 140.7 201.5 146 L 212.5 151 L 222.5 151 Q 233.4 147.9 239 139.5 Q 244.9 131.6 243 117 L 269 117 L 269 129.5 Q 271.6 141.4 280.5 147 L 289.5 151 L 299.5 151 Q 309.6 148.6 315 141.5 L 320 131.5 L 320 117 L 347 117 L 347 131.5 Q 349.4 141.1 356.5 146 L 367.5 151 L 377.5 151 Q 388.4 147.9 394 139.5 Q 399.7 131.9 398 118 Q 414.9 120.8 423 133.5 Q 427.5 140 429 149.5 L 429 176 L 83.5 176 L 83 175.5 L 83 149.5 Q 86.1 132.1 98.5 124 Q 104.4 118.4 114 118 L 115 133.5 L 121 144 L 128.5 149 L 134.5 151 L 144.5 151 Q 155.4 148.4 161 140.5 L 165 131.5 L 165 117 Z " /><path fill="rgb(0,0,0)" stroke="rgb(0,0,0)" stroke-width="1" opacity="0" d="M 83 190 L 429 190 L 429 396.5 Q 426.4 410.9 417.5 419 Q 409.8 426.8 396.5 429 L 115.5 429 Q 101.1 426.4 93 417.5 Q 85.2 409.8 83 396.5 L 83 190 Z M 134 225 L 129 227 Q 123 231 120 239 L 120 276 L 124 284 Q 128 289 136 290 L 171 290 L 179 286 L 185 277 L 185 239 L 183 234 L 173 225 L 134 225 Z M 237 225 L 231 228 L 225 235 L 223 242 L 223 274 L 226 282 Q 230 288 239 290 L 274 290 L 281 287 Q 287 283 289 274 L 289 242 L 285 232 L 276 225 L 237 225 Z M 386 232 L 352 265 L 335 249 Q 328 248 326 250 L 324 255 L 326 261 L 347 281 L 355 282 L 394 243 L 395 240 L 394 236 Q 392 231 386 232 Z M 135 321 L 127 325 L 120 336 L 120 372 L 123 379 Q 127 384 134 386 L 172 386 L 177 384 Q 183 380 185 373 L 185 335 L 182 329 Q 178 323 171 321 L 135 321 Z M 238 321 L 232 324 Q 225 328 223 338 L 223 370 L 227 380 L 237 386 L 276 386 L 283 382 Q 287 377 289 370 L 289 338 L 286 330 Q 282 324 275 321 L 238 321 Z M 342 321 L 335 324 Q 329 328 327 335 L 327 373 L 329 378 Q 333 384 341 386 L 379 386 L 385 383 Q 390 379 392 372 L 392 336 L 388 328 L 378 321 L 342 321 Z " /><path fill="rgb(0,0,0)" stroke="rgb(0,0,0)" stroke-width="1" opacity="0" d="M 136.5 239 L 168.5 239 L 171 241.5 L 171 273.5 L 168.5 276 L 137.5 276 L 134 273.5 L 134 241.5 L 136.5 239 Z " /><path fill="rgb(0,0,0)" stroke="rgb(0,0,0)" stroke-width="1" opacity="0" d="M 239.5 239 L 272.5 239 L 274 240.5 L 275 242.5 L 275 272.5 L 271.5 276 L 240.5 276 L 237 272.5 L 237 242.5 L 239.5 239 Z " /><path fill="rgb(0,0,0)" stroke="rgb(0,0,0)" stroke-width="1" opacity="0" d="M 136.5 335 L 168.5 335 L 171 337.5 L 171 369.5 L 168.5 372 L 136.5 372 L 134 369.5 L 134 337.5 L 136.5 335 Z " /><path fill="rgb(0,0,0)" stroke="rgb(0,0,0)" stroke-width="1" opacity="0" d="M 240.5 335 L 271.5 335 L 275 338.5 L 275 368.5 L 272.5 372 L 239.5 372 L 238 370.5 L 237 368.5 L 237 338.5 L 238 336 L 240.5 335 Z " /><path fill="rgb(0,0,0)" stroke="rgb(0,0,0)" stroke-width="1" opacity="0" d="M 343.5 335 L 375.5 335 L 378 337.5 L 378 369.5 L 375.5 372 L 343.5 372 L 341 369.5 L 341 337.5 L 343.5 335 Z " /></svg>