<svg width="38" height="37" viewBox="0 0 38 37" fill="none" xmlns="http://www.w3.org/2000/svg">
<g id="Restaurantes">
<path id="Vector" d="M15.0899 25.4156C14.5923 24.8768 14.0893 24.3655 13.6302 23.8212C13.3498 23.4858 13.0612 23.3182 12.6159 23.4391C12.3712 23.5051 12.1073 23.5078 11.8517 23.5106C11.2552 23.5161 10.6586 23.5326 10.0649 23.4886C9.81748 23.4693 9.65254 23.4968 9.47386 23.6755C6.79642 26.364 4.11349 29.0441 1.4333 31.7271C0.856026 32.3043 0.856026 32.8734 1.43055 33.4534C2.0628 34.0911 2.6978 34.7234 3.3328 35.3584C3.95955 35.9879 4.51758 35.9851 5.15257 35.3501C7.44792 33.0548 9.74326 30.7595 12.0386 28.4614C13.0502 27.4498 14.0645 26.4409 15.0899 25.4156Z" stroke="white" stroke-width="2" stroke-linecap="round" stroke-linejoin="round"/>
<path id="Vector_2" d="M1.62305 6.49203C1.72201 5.9395 1.78523 5.37598 1.93367 4.83444C2.09586 4.24067 2.30753 3.65516 2.54668 3.08888C2.89579 2.26146 3.78369 2.09378 4.42694 2.72603C5.71892 4.00152 6.99717 5.29076 8.28366 6.5745C16.0851 14.3759 23.8892 22.1801 31.6906 29.9842C31.7731 30.0667 31.8583 30.1492 31.938 30.2371C32.3696 30.7154 32.3834 31.3312 31.9353 31.7958C31.1931 32.5627 30.4371 33.3187 29.6674 34.0609C29.1616 34.5502 28.5074 34.5007 27.9988 33.9537C26.6876 32.5462 25.3819 31.136 24.0762 29.7258C21.0633 26.4739 18.0505 23.2219 15.0295 19.9782C14.9388 19.882 14.7573 19.8188 14.6226 19.827C13.7265 19.8847 12.8331 19.9617 11.9397 20.0387C11.0711 20.1129 10.3041 19.8737 9.68835 19.2607C7.80535 17.3832 5.90035 15.525 4.06958 13.5952C2.66214 12.1108 1.92268 10.28 1.68902 8.24859C1.67528 8.13313 1.64779 8.02043 1.6258 7.90772C1.6258 7.43766 1.6258 6.96759 1.6258 6.49753L1.62305 6.49203Z" stroke="white" stroke-width="2" stroke-linecap="round" stroke-linejoin="round"/>
<path id="Vector_3" d="M36.1767 8.8781C35.9953 9.1255 35.8441 9.40039 35.6324 9.61481C33.7274 11.5335 31.8142 13.4413 29.9009 15.3518C28.4083 16.8444 26.6242 17.408 24.5461 17.0066C24.4086 16.9791 24.2629 16.8994 24.164 16.8032C22.8967 15.547 21.635 14.2852 20.3815 13.018C20.2715 12.9053 20.1918 12.7321 20.1616 12.5754C19.785 10.5604 20.31 8.80938 21.7504 7.35246C23.7104 5.37049 25.6924 3.40777 27.6633 1.43405C27.93 1.16741 28.2214 0.955739 28.6172 1.00797C29.0185 1.0602 29.3154 1.27186 29.4556 1.65946C29.5931 2.04156 29.5326 2.40167 29.2495 2.69855C28.9168 3.04766 28.5732 3.38303 28.2351 3.72389C26.7837 5.17532 25.3323 6.62399 23.8836 8.07542C23.4025 8.55648 23.2788 9.11176 23.5207 9.6478C23.9111 10.5082 24.9831 10.6869 25.6869 9.99691C26.616 9.08427 27.5341 8.15514 28.455 7.23425C29.3017 6.38759 30.1456 5.54092 30.995 4.69701C31.4816 4.2132 32.1358 4.18846 32.5619 4.62554C32.988 5.06261 32.955 5.70586 32.4684 6.19241C30.7339 7.93248 28.9966 9.66979 27.2537 11.4044C26.8799 11.7755 26.6655 12.196 26.7837 12.7266C27.0146 13.7657 28.2324 14.1175 29.0185 13.3643C29.7058 12.7073 30.3655 12.0229 31.039 11.3521C32.1193 10.2718 33.1996 9.19148 34.28 8.1139C35.0139 7.38269 35.7231 7.5009 36.1767 8.42728V8.87535V8.8781Z" stroke="white" stroke-width="2" stroke-linecap="round" stroke-linejoin="round"/>
</g>
</svg>
