<svg width="15" height="19" viewBox="0 0 15 19" fill="none" xmlns="http://www.w3.org/2000/svg">
<g id="Search Icon">
<path id="Vector" d="M13.447 7.22348C13.447 10.6588 10.6588 13.447 7.22348 13.447C3.78812 13.447 1 10.6588 1 7.22348C1 3.78812 3.78812 1 7.22348 1C10.6588 1 13.447 3.78812 13.447 7.22348Z" stroke="#898A8D" stroke-width="1.5" stroke-linecap="round" stroke-linejoin="round"/>
<path id="Vector 6" d="M13.0092 18.5183C13.221 18.8743 13.6812 18.9913 14.0372 18.7796C14.3932 18.5678 14.5102 18.1076 14.2985 17.7516L13.0092 18.5183ZM11.3863 12.8545L11.003 12.2099L9.71373 12.9766L10.0971 13.6212L11.3863 12.8545ZM14.2985 17.7516L11.3863 12.8545L10.0971 13.6212L13.0092 18.5183L14.2985 17.7516Z" fill="#898A8D"/>
</g>
</svg>
