<svg width="42" height="45" viewBox="0 0 42 45" fill="none" xmlns="http://www.w3.org/2000/svg">
<g id="Icono est&#195;&#169;tica">
<g id="vacDPJ.tif">
<path id="Vector" d="M24.3102 21.6786C22.546 22.3013 20.9633 23.2191 19.7504 24.6817C18.3656 26.3552 17.8823 28.327 17.8791 30.4512C17.8791 34.0284 17.8467 37.6088 17.8953 41.186C17.9148 42.6227 16.8218 43.5308 15.5927 43.5276C13.1117 43.5146 10.6307 43.5178 8.14645 43.5276C6.9173 43.5308 5.84382 42.6 5.86328 41.212C5.91193 37.7451 5.8795 34.2781 5.8795 30.8112C5.8795 28.6967 5.65572 26.6049 5.13682 24.552C4.67305 22.7196 4.08929 20.9229 3.045 19.3305C1.23857 16.5739 0.615893 13.6032 1.22885 10.3665C2.75312 2.32031 12.369 -1.65901 19.1245 2.95921C21.0022 4.24349 22.9546 5.40453 25.0302 6.33855C26.908 7.18177 28.8409 7.73634 30.9359 7.62932C32.084 7.57094 33.2353 7.61635 34.3866 7.61959C34.578 7.61959 34.7758 7.6358 34.9639 7.67472C35.7552 7.83688 36.1574 8.41091 36.4266 9.11143V13.6388M13.1117 7.32771C9.62856 7.31798 6.81028 10.1136 6.78758 13.5967C6.76812 17.1058 9.55721 19.937 13.0598 19.9565C16.5624 19.9759 19.3904 17.1771 19.4066 13.668C19.4261 10.1687 16.611 7.33744 13.1117 7.32771Z" stroke="white" stroke-width="2" stroke-linecap="round" stroke-linejoin="round"/>
</g>
<path id="Vector_2" d="M26.0615 42.2205C27.8813 42.2205 29.3565 40.7453 29.3565 38.9255C29.3565 37.1057 27.8813 35.6305 26.0615 35.6305C24.2417 35.6305 22.7665 37.1057 22.7665 38.9255C22.7665 40.7453 24.2417 42.2205 26.0615 42.2205Z" stroke="white" stroke-width="2" stroke-linecap="round" stroke-linejoin="round"/>
<path id="Vector_3" d="M36.7735 42.2205C38.5933 42.2205 40.0686 40.7453 40.0686 38.9255C40.0686 37.1057 38.5933 35.6305 36.7735 35.6305C34.9537 35.6305 33.4785 37.1057 33.4785 38.9255C33.4785 40.7453 34.9537 42.2205 36.7735 42.2205Z" stroke="white" stroke-width="2" stroke-linecap="round" stroke-linejoin="round"/>
<path id="Vector_4" d="M26.989 17.1317L31.8667 31.7907L34.7077 36.357" stroke="white" stroke-width="2" stroke-linecap="round" stroke-linejoin="round"/>
<path id="Vector_5" d="M38.2622 17.4073L32.0646 31.5571L28.8182 35.8478" stroke="white" stroke-width="2" stroke-linecap="round" stroke-linejoin="round"/>
</g>
</svg>
