<svg width="52" height="30" viewBox="0 0 52 30" fill="none" xmlns="http://www.w3.org/2000/svg">
<g id="Masaje Dama Icono">
<path id="Vector" d="M1 27.6639C1 27.6639 24.453 15.2958 42.3263 27.6639" stroke="white" stroke-width="2" stroke-linecap="round" stroke-linejoin="round"/>
<path id="Vector_2" d="M16.536 28.3943C16.536 28.3943 22.2675 25.3782 26.415 28.0162" stroke="white" stroke-width="2" stroke-linecap="round" stroke-linejoin="round"/>
<path id="Vector_3" d="M6.51673 7.10383C8.82536 7.87433 11.303 7.96886 13.6632 7.38454L18.3607 6.21876C20.0277 5.80344 21.795 6.1271 23.2071 7.1067L28.7896 10.9735C29.6489 11.5693 29.6489 12.8382 28.7896 13.434C28.2339 13.8206 27.4892 13.7863 26.9708 13.348L24.0349 10.8704C23.2529 10.2116 22.2103 9.95096 21.2107 10.1601L17.8365 10.8733C16.8798 11.0766 16.7967 12.4114 17.7219 12.7293L23.0896 14.574C23.7885 14.8146 24.2067 15.5278 24.075 16.2524C23.9461 16.9628 23.3274 17.4784 22.6056 17.4784H17.3238C14.9063 17.4784 12.5089 17.0487 10.2432 16.2123L3.80422 13.835C3.06236 13.56 2.70146 12.7179 3.0194 11.9932L4.82105 7.85715C5.10462 7.20409 5.84361 6.87469 6.51959 7.10097L6.51673 7.10383Z" stroke="white" stroke-width="2" stroke-linecap="round" stroke-linejoin="round"/>
<path id="Vector_4" d="M43.3804 14.6227C47.1422 14.6227 50.1918 11.5731 50.1918 7.81134C50.1918 4.04954 47.1422 1 43.3804 1C39.6186 1 36.5691 4.04954 36.5691 7.81134C36.5691 11.5731 39.6186 14.6227 43.3804 14.6227Z" stroke="white" stroke-width="2" stroke-linecap="round" stroke-linejoin="round"/>
<path id="Vector_5" d="M43.3804 20.4917V14.6255" stroke="white" stroke-width="2" stroke-linecap="round" stroke-linejoin="round"/>
<path id="Vector_6" d="M40.688 18.1H46.0729" stroke="white" stroke-width="2" stroke-linecap="round" stroke-linejoin="round"/>
</g>
</svg>
