<svg width="55" height="30" viewBox="0 0 55 30" fill="none" xmlns="http://www.w3.org/2000/svg">
<g id="Masaje Caballero Icono">
<path id="Vector" d="M1 27.6639C1 27.6639 24.453 15.2958 42.3263 27.6639" stroke="white" stroke-width="2" stroke-linecap="round" stroke-linejoin="round"/>
<path id="Vector_2" d="M16.536 28.3943C16.536 28.3943 22.2675 25.3782 26.415 28.0162" stroke="white" stroke-width="2" stroke-linecap="round" stroke-linejoin="round"/>
<path id="Vector_3" d="M6.51673 7.1039C8.82536 7.8744 11.303 7.96892 13.6632 7.3846L18.3607 6.21882C20.0277 5.8035 21.795 6.12716 23.2071 7.10676L28.7896 10.9736C29.6489 11.5694 29.6489 12.8383 28.7896 13.434C28.2339 13.8207 27.4892 13.7863 26.9708 13.3481L24.0349 10.8705C23.2529 10.2117 22.2103 9.95102 21.2107 10.1601L17.8365 10.8733C16.8798 11.0767 16.7967 12.4115 17.7219 12.7294L23.0896 14.574C23.7885 14.8146 24.2067 15.5278 24.075 16.2525C23.9461 16.9629 23.3274 17.4784 22.6056 17.4784H17.3238C14.9063 17.4784 12.5089 17.0488 10.2432 16.2124L3.80422 13.835C3.06236 13.5601 2.70146 12.7179 3.0194 11.9933L4.82105 7.85721C5.10462 7.20415 5.84361 6.87475 6.51959 7.10103L6.51673 7.1039Z" stroke="white" stroke-width="2" stroke-linecap="round" stroke-linejoin="round"/>
<path id="Vector_4" d="M43.3804 19.6667C47.1422 19.6667 50.1918 16.6172 50.1918 12.8554C50.1918 9.09361 47.1422 6.04407 43.3804 6.04407C39.6186 6.04407 36.5691 9.09361 36.5691 12.8554C36.5691 16.6172 39.6186 19.6667 43.3804 19.6667Z" stroke="white" stroke-width="2" stroke-linecap="round" stroke-linejoin="round"/>
<path id="Vector_5" d="M51.3088 2.73291L47.5623 7.47908" stroke="white" stroke-width="2" stroke-linecap="round" stroke-linejoin="round"/>
<path id="Vector_6" d="M46.4452 1.69603L52.5233 1L53.5 6.68566" stroke="white" stroke-width="2" stroke-linecap="round" stroke-linejoin="round"/>
</g>
</svg>
