<svg width="37" height="37" viewBox="0 0 37 37" fill="none" xmlns="http://www.w3.org/2000/svg">
<g id="Icono Golf">
<path id="Vector" d="M18.1669 35.3339C27.648 35.3339 35.3339 27.648 35.3339 18.1669C35.3339 8.6859 27.648 1 18.1669 1C8.6859 1 1 8.6859 1 18.1669C1 27.648 8.6859 35.3339 18.1669 35.3339Z" stroke="white" stroke-width="2" stroke-linecap="round" stroke-linejoin="round"/>
<path id="Vector_2" d="M5.4093 14.1755C5.76941 12.944 7.0614 12.2375 8.29291 12.5976C9.52442 12.9577 10.2309 14.2497 9.87078 15.4812" stroke="white" stroke-width="2" stroke-linecap="round" stroke-linejoin="round"/>
<path id="Vector_3" d="M8.68323 26.4521C9.91474 26.8123 10.6212 28.1042 10.2611 29.3358" stroke="white" stroke-width="2" stroke-linecap="round" stroke-linejoin="round"/>
<path id="Vector_4" d="M7.68811 21.581C8.04822 20.3495 9.34021 19.643 10.5717 20.0032C11.8032 20.3633 12.5097 21.6553 12.1496 22.8868" stroke="white" stroke-width="2" stroke-linecap="round" stroke-linejoin="round"/>
<path id="Vector_5" d="M15.8881 17.1526C16.2482 15.9211 17.5402 15.2146 18.7717 15.5747C20.0032 15.9348 20.7097 17.2268 20.3495 18.4583" stroke="white" stroke-width="2" stroke-linecap="round" stroke-linejoin="round"/>
<path id="Vector_6" d="M16.8447 23.3624C17.2048 22.1309 18.4968 21.4244 19.7283 21.7845C20.9598 22.1446 21.6663 23.4366 21.3062 24.6681" stroke="white" stroke-width="2" stroke-linecap="round" stroke-linejoin="round"/>
<path id="Vector_7" d="M15.1816 29.5666C15.5417 28.3351 16.8337 27.6286 18.0652 27.9888C19.2968 28.3489 20.0032 29.6408 19.6431 30.8724" stroke="white" stroke-width="2" stroke-linecap="round" stroke-linejoin="round"/>
<path id="Vector_8" d="M23.0546 30.2181C23.4147 28.9866 24.7067 28.2801 25.9382 28.6402" stroke="white" stroke-width="2" stroke-linecap="round" stroke-linejoin="round"/>
</g>
</svg>
