<svg width="37" height="37" viewBox="0 0 37 37" fill="none" xmlns="http://www.w3.org/2000/svg">
<g id="Tennis Icono">
<path id="Vector" d="M18.1669 35.3339C27.648 35.3339 35.3339 27.648 35.3339 18.1669C35.3339 8.6859 27.648 1 18.1669 1C8.6859 1 1 8.6859 1 18.1669C1 27.648 8.6859 35.3339 18.1669 35.3339Z" stroke="white" stroke-width="2" stroke-linecap="round" stroke-linejoin="round"/>
<path id="Vector_2" d="M18.9477 1.86865C15.9046 5.21408 14.2388 10.5085 16.6194 14.5384C17.7849 16.5094 19.5909 18.0213 21.4739 19.3242C25.3417 21.9989 30.1138 23.6043 31.5844 28.4534" stroke="white" stroke-width="2" stroke-linecap="round" stroke-linejoin="round"/>
<path id="Vector_3" d="M2.6604 11.4514C5.64297 13.0595 7.86134 16.0174 8.57331 19.3298C8.92517 20.9654 8.86744 22.579 8.83171 24.2366C8.76298 27.4473 8.4661 30.5069 10.2007 33.374" stroke="white" stroke-width="2" stroke-linecap="round" stroke-linejoin="round"/>
</g>
</svg>
