<svg width="44" height="44" viewBox="0 0 44 44" fill="none" xmlns="http://www.w3.org/2000/svg">
<g id="Icono Padel">
<path id="Vector" d="M27.2457 31.0971L31.0906 27.2521C31.5697 26.773 31.7284 26.059 31.4934 25.4212C31.17 24.5332 30.8221 23.3278 30.813 23.2698C30.1477 19.1807 30.8191 14.8536 29.8059 10.7706C27.5661 1.75328 16.3882 -1.27997 8.80206 2.75114C4.60006 4.98183 1.51799 9.09533 1.05415 13.8863C0.877159 15.7142 1.13654 17.5665 1.79568 19.2814C1.8384 19.3943 1.88417 19.5042 1.92995 19.6171C3.3123 23.0043 5.59792 26.1169 8.73492 28.0638C11.6095 29.849 15.0547 30.1053 18.3504 30.1847C19.8426 30.2213 21.3562 30.1786 22.8453 30.3037C23.0467 30.322 24.7739 30.8255 25.7352 31.332C26.2326 31.5945 26.8459 31.4938 27.2426 31.0971H27.2457Z" stroke="white" stroke-width="2" stroke-linecap="round" stroke-linejoin="round"/>
<path id="Vector_2" d="M12.3693 7.57877C12.7603 7.57877 13.0773 7.2618 13.0773 6.8708C13.0773 6.47981 12.7603 6.16284 12.3693 6.16284C11.9783 6.16284 11.6614 6.47981 11.6614 6.8708C11.6614 7.2618 11.9783 7.57877 12.3693 7.57877Z" fill="white"/>
<path id="Vector_3" d="M13.0773 12.7969C13.4683 12.7969 13.7853 12.4799 13.7853 12.0889C13.7853 11.6979 13.4683 11.381 13.0773 11.381C12.6864 11.381 12.3694 11.6979 12.3694 12.0889C12.3694 12.4799 12.6864 12.7969 13.0773 12.7969Z" fill="white"/>
<path id="Vector_4" d="M14.1148 18.012C14.5058 18.012 14.8228 17.695 14.8228 17.304C14.8228 16.913 14.5058 16.5961 14.1148 16.5961C13.7238 16.5961 13.4069 16.913 13.4069 17.304C13.4069 17.695 13.7238 18.012 14.1148 18.012Z" fill="white"/>
<path id="Vector_5" d="M15.2591 23.2271C15.6501 23.2271 15.9671 22.9101 15.9671 22.5191C15.9671 22.1281 15.6501 21.8112 15.2591 21.8112C14.8681 21.8112 14.5511 22.1281 14.5511 22.5191C14.5511 22.9101 14.8681 23.2271 15.2591 23.2271Z" fill="white"/>
<path id="Vector_6" d="M17.4837 8.47281C17.8747 8.47281 18.1917 8.15584 18.1917 7.76485C18.1917 7.37385 17.8747 7.05688 17.4837 7.05688C17.0927 7.05688 16.7758 7.37385 16.7758 7.76485C16.7758 8.15584 17.0927 8.47281 17.4837 8.47281Z" fill="white"/>
<path id="Vector_7" d="M18.1917 13.6879C18.5827 13.6879 18.8997 13.3709 18.8997 12.9799C18.8997 12.5889 18.5827 12.272 18.1917 12.272C17.8007 12.272 17.4838 12.5889 17.4838 12.9799C17.4838 13.3709 17.8007 13.6879 18.1917 13.6879Z" fill="white"/>
<path id="Vector_8" d="M19.2323 18.906C19.6233 18.906 19.9402 18.5891 19.9402 18.1981C19.9402 17.8071 19.6233 17.4901 19.2323 17.4901C18.8413 17.4901 18.5243 17.8071 18.5243 18.1981C18.5243 18.5891 18.8413 18.906 19.2323 18.906Z" fill="white"/>
<path id="Vector_9" d="M20.3736 24.1212C20.7646 24.1212 21.0816 23.8043 21.0816 23.4133C21.0816 23.0223 20.7646 22.7053 20.3736 22.7053C19.9826 22.7053 19.6656 23.0223 19.6656 23.4133C19.6656 23.8043 19.9826 24.1212 20.3736 24.1212Z" fill="white"/>
<path id="Vector_10" d="M22.708 9.47989C23.099 9.47989 23.4159 9.16292 23.4159 8.77193C23.4159 8.38093 23.099 8.06396 22.708 8.06396C22.317 8.06396 22 8.38093 22 8.77193C22 9.16292 22.317 9.47989 22.708 9.47989Z" fill="white"/>
<path id="Vector_11" d="M23.416 14.6949C23.807 14.6949 24.1239 14.3779 24.1239 13.9869C24.1239 13.5959 23.807 13.2789 23.416 13.2789C23.025 13.2789 22.708 13.5959 22.708 13.9869C22.708 14.3779 23.025 14.6949 23.416 14.6949Z" fill="white"/>
<path id="Vector_12" d="M24.4536 19.9131C24.8446 19.9131 25.1615 19.5962 25.1615 19.2052C25.1615 18.8142 24.8446 18.4972 24.4536 18.4972C24.0626 18.4972 23.7456 18.8142 23.7456 19.2052C23.7456 19.5962 24.0626 19.9131 24.4536 19.9131Z" fill="white"/>
<path id="Vector_13" d="M8.13386 11.7868C8.52486 11.7868 8.84183 11.4698 8.84183 11.0788C8.84183 10.6878 8.52486 10.3708 8.13386 10.3708C7.74287 10.3708 7.4259 10.6878 7.4259 11.0788C7.4259 11.4698 7.74287 11.7868 8.13386 11.7868Z" fill="white"/>
<path id="Vector_14" d="M8.84175 17.005C9.23275 17.005 9.54971 16.6881 9.54971 16.2971C9.54971 15.9061 9.23275 15.5891 8.84175 15.5891C8.45075 15.5891 8.13379 15.9061 8.13379 16.2971C8.13379 16.6881 8.45075 17.005 8.84175 17.005Z" fill="white"/>
<path id="Vector_15" d="M9.87923 22.2201C10.2702 22.2201 10.5872 21.9032 10.5872 21.5122C10.5872 21.1212 10.2702 20.8042 9.87923 20.8042C9.48823 20.8042 9.17126 21.1212 9.17126 21.5122C9.17126 21.9032 9.48823 22.2201 9.87923 22.2201Z" fill="white"/>
<path id="Vector_16" d="M31.2828 27.0598L39.1619 34.9389C39.9004 35.6774 40.7426 36.306 41.6642 36.8034L42.302 37.1483C43.0862 37.5724 43.2388 38.6313 42.6102 39.2599L39.6349 42.2352C39.0002 42.8699 37.9352 42.7082 37.5171 41.9179C36.9648 40.8742 36.2446 39.9282 35.3872 39.1165L27.0778 31.2679" stroke="white" stroke-width="2" stroke-linecap="round" stroke-linejoin="round"/>
</g>
</svg>
