<svg width="30" height="31" viewBox="0 0 30 31" fill="none" xmlns="http://www.w3.org/2000/svg">
<g id="Finanzas Icono">
<path id="Vector" d="M15.0541 1.48019C22.9525 1.53529 29.1739 7.82055 29.1144 15.6837C29.0549 23.3993 22.7101 29.6647 15.0254 29.5942C7.11376 29.5237 0.943097 23.2604 1.0004 15.3598C1.05329 7.69273 7.39805 1.4273 15.0541 1.48019ZM13.756 6.8641C13.756 7.25197 13.734 7.61559 13.7626 7.97482C13.8023 8.46847 13.7274 8.77039 13.1081 8.80124C12.6762 8.82328 12.2332 9.02162 11.8321 9.21776C9.41013 10.4078 9.0443 13.5328 11.1886 15.1702C11.9401 15.7432 12.8767 16.0826 13.7472 16.4903C14.6574 16.9157 15.6491 17.1978 16.4932 17.7223C17.443 18.3107 17.2623 19.4787 16.2067 19.8666C15.7417 20.0385 15.1621 20.1509 14.7059 20.0296C13.7693 19.7806 12.8811 19.3553 12.0172 19.0203C11.4795 19.5624 10.8801 20.1641 10.2696 20.7767C11.1247 21.4974 12.1517 22.0219 13.2888 22.3172C13.6458 22.4098 13.7869 22.5684 13.7626 22.9387C13.734 23.3618 13.756 23.7871 13.756 24.2103H16.2618C16.2618 23.829 16.2838 23.4852 16.2552 23.148C16.2199 22.7183 16.3235 22.5111 16.8127 22.4142C17.3703 22.304 17.9278 22.0748 18.4193 21.7861C20.9184 20.3294 20.9779 17.1383 18.5273 15.6088C17.9146 15.2275 17.216 14.9763 16.5394 14.7119C15.8034 14.4232 15.0232 14.2336 14.3026 13.9163C13.3043 13.4755 12.8855 12.7879 13.0839 12.107C13.291 11.3907 14.1505 10.9852 15.1775 11.1196C15.2414 11.1285 15.3075 11.1373 15.367 11.1593C16.2618 11.4987 17.1543 11.8425 18.124 12.2127C18.5736 11.686 19.1157 11.0513 19.7945 10.258C18.7278 9.77533 17.7582 9.2971 16.7554 8.90262C16.3962 8.76157 16.2287 8.63155 16.2574 8.23707C16.2904 7.7941 16.264 7.34453 16.264 6.8663H13.7582L13.756 6.8641Z" stroke="#2196F3" stroke-width="1.5" stroke-linecap="round" stroke-linejoin="round"/>
</g>
</svg>
