<svg width="29" height="23" viewBox="0 0 29 23" fill="none" xmlns="http://www.w3.org/2000/svg">
<g id="Experiencias Icono">
<path id="Vector" d="M23.1951 7.97844L21.5583 9.46679V5.40866C21.5583 3.26778 19.8225 1.53015 17.6798 1.53015H4.87851C2.7358 1.53015 1 3.26595 1 5.40866V18.2118C1 20.3526 2.7358 22.0903 4.87851 22.0903H17.6816C19.8225 22.0903 21.5601 20.3545 21.5601 18.2118V14.1536L23.1969 15.642L24.8906 17.1817C25.8584 18.0615 27.4109 17.3741 27.4109 16.0672V7.5532C27.4109 6.24448 25.8584 5.55896 24.8906 6.43877L23.1969 7.97844H23.1951Z" stroke="#2196F3" stroke-width="1.5" stroke-linecap="round" stroke-linejoin="round"/>
<path id="Vector_2" d="M11.3524 12.3372C12.9913 12.3372 14.32 11.0086 14.32 9.36963C14.32 7.73071 12.9913 6.4021 11.3524 6.4021C9.7135 6.4021 8.38489 7.73071 8.38489 9.36963C8.38489 11.0086 9.7135 12.3372 11.3524 12.3372Z" stroke="#2196F3" stroke-width="1.5" stroke-linecap="round" stroke-linejoin="round"/>
<path id="Vector_3" d="M6.47315 17.2183C6.47315 14.5239 8.65801 12.3391 11.3524 12.3391C14.0469 12.3391 16.2317 14.5239 16.2317 17.2183H6.47131H6.47315Z" stroke="#2196F3" stroke-width="1.5" stroke-linecap="round" stroke-linejoin="round"/>
</g>
</svg>
