<svg width="25" height="28" viewBox="0 0 25 28" fill="none" xmlns="http://www.w3.org/2000/svg">
<g id="Agenda Icono">
<path id="Vector" d="M17.2979 3.36576H7.70514C4.00199 3.36576 1 6.38141 1 10.1014V19.7378C1 23.4578 4.00199 26.4734 7.70514 26.4734H17.2979C21.001 26.4734 24.003 23.4578 24.003 19.7378V10.1014C24.003 6.38141 21.001 3.36576 17.2979 3.36576Z" stroke="#2196F3" stroke-width="1.5" stroke-linecap="round" stroke-linejoin="round"/>
<path id="Vector_2" d="M7.43176 0.974243V6.75968" stroke="#2196F3" stroke-width="1.5" stroke-linecap="round" stroke-linejoin="round"/>
<path id="Vector_3" d="M17.7349 0.974243V6.75968" stroke="#2196F3" stroke-width="1.5" stroke-linecap="round" stroke-linejoin="round"/>
<path id="Vector_4" d="M1 10.739H24.003" stroke="#2196F3" stroke-width="1.5" stroke-linecap="round" stroke-linejoin="round"/>
<path id="Vector_5" d="M7.17829 16.8732C7.88034 16.8732 8.44947 16.3015 8.44947 15.5962C8.44947 14.891 7.88034 14.3192 7.17829 14.3192C6.47623 14.3192 5.9071 14.891 5.9071 15.5962C5.9071 16.3015 6.47623 16.8732 7.17829 16.8732Z" fill="#2196F3"/>
<path id="Vector_6" d="M7.17829 21.8046C7.88034 21.8046 8.44947 21.2329 8.44947 20.5277C8.44947 19.8224 7.88034 19.2507 7.17829 19.2507C6.47623 19.2507 5.9071 19.8224 5.9071 20.5277C5.9071 21.2329 6.47623 21.8046 7.17829 21.8046Z" fill="#2196F3"/>
<path id="Vector_7" d="M12.7121 16.8732C13.4142 16.8732 13.9833 16.3015 13.9833 15.5962C13.9833 14.891 13.4142 14.3192 12.7121 14.3192C12.01 14.3192 11.4409 14.891 11.4409 15.5962C11.4409 16.3015 12.01 16.8732 12.7121 16.8732Z" fill="#2196F3"/>
<path id="Vector_8" d="M12.7121 21.8046C13.4142 21.8046 13.9833 21.2329 13.9833 20.5277C13.9833 19.8224 13.4142 19.2507 12.7121 19.2507C12.01 19.2507 11.4409 19.8224 11.4409 20.5277C11.4409 21.2329 12.01 21.8046 12.7121 21.8046Z" fill="#2196F3"/>
<path id="Vector_9" d="M18.0083 16.8732C18.7104 16.8732 19.2795 16.3015 19.2795 15.5962C19.2795 14.891 18.7104 14.3192 18.0083 14.3192C17.3063 14.3192 16.7371 14.891 16.7371 15.5962C16.7371 16.3015 17.3063 16.8732 18.0083 16.8732Z" fill="#2196F3"/>
<path id="Vector_10" d="M18.0083 21.8046C18.7104 21.8046 19.2795 21.2329 19.2795 20.5277C19.2795 19.8224 18.7104 19.2507 18.0083 19.2507C17.3063 19.2507 16.7371 19.8224 16.7371 20.5277C16.7371 21.2329 17.3063 21.8046 18.0083 21.8046Z" fill="#2196F3"/>
</g>
</svg>
