<svg width="28" height="28" viewBox="0 0 28 28" fill="none" xmlns="http://www.w3.org/2000/svg">
<path id="Home Icono" d="M23.2297 17.9061C23.2297 19.4359 23.2315 20.9887 23.2297 22.5398C23.2261 24.9484 21.8753 26.2965 19.4267 26.3035C15.7771 26.3141 12.1274 26.3141 8.4795 26.3035C6.1539 26.2965 4.78883 24.9466 4.75854 22.6333C4.73893 21.0523 4.75497 19.4695 4.75497 17.9149C4.17758 17.7632 3.66969 17.6926 3.21527 17.4985C0.772051 16.445 0.240994 13.4683 2.16919 11.5167C4.36648 9.29336 6.6012 7.10709 8.82165 4.90671C9.59685 4.13914 10.3667 3.36451 11.149 2.60575C12.924 0.883563 15.0535 0.876505 16.8124 2.60575C19.7582 5.50136 22.6826 8.41815 25.6337 11.3067C26.7582 12.4078 27.3053 13.6835 26.8259 15.2099C26.3412 16.7591 25.2113 17.622 23.5665 17.7931C23.4827 17.802 23.4025 17.8478 23.2297 17.9061ZM16.1798 20.9887C16.1798 20.9887 16.1745 20.9887 16.1727 20.9887C16.1727 20.6076 16.1869 20.2264 16.1691 19.8453C16.1174 18.7407 15.2211 17.8955 14.0841 17.8602C12.8527 17.8231 11.8726 18.6666 11.8155 19.8506C11.7834 20.5229 11.7959 21.1987 11.8102 21.8728C11.8387 23.1715 12.6994 23.999 14.0003 24.0008C15.3013 24.0026 16.162 23.1626 16.1798 21.8675C16.1834 21.5746 16.1798 21.2816 16.1798 20.9887Z" stroke="#2196F3" stroke-width="1.5" stroke-linecap="round" stroke-linejoin="round"/>
</svg>
