<svg width="29" height="23" viewBox="0 0 29 23" fill="none" xmlns="http://www.w3.org/2000/svg">
<g id="Experiencias Icono">
<path id="Vector" d="M23.1951 7.49859L21.5583 8.98694V4.9288C21.5583 2.78792 19.8225 1.05029 17.6798 1.05029H4.87851C2.7358 1.05029 1 2.78609 1 4.9288V17.7319C1 19.8728 2.7358 21.6104 4.87851 21.6104H17.6816C19.8225 21.6104 21.5601 19.8746 21.5601 17.7319V13.6738L23.1969 15.1621L24.8906 16.7018C25.8584 17.5816 27.4109 16.8943 27.4109 15.5874V7.07334C27.4109 5.76462 25.8584 5.0791 24.8906 5.95891L23.1969 7.49859H23.1951Z" stroke="#979797" stroke-width="1.5" stroke-linecap="round" stroke-linejoin="round"/>
<path id="Vector_2" d="M11.3525 11.8573C12.9915 11.8573 14.3201 10.5287 14.3201 8.88978C14.3201 7.25085 12.9915 5.92224 11.3525 5.92224C9.71362 5.92224 8.38501 7.25085 8.38501 8.88978C8.38501 10.5287 9.71362 11.8573 11.3525 11.8573Z" stroke="#979797" stroke-width="1.5" stroke-linecap="round" stroke-linejoin="round"/>
<path id="Vector_3" d="M6.47302 16.7385C6.47302 14.0441 8.65789 11.8592 11.3523 11.8592C14.0467 11.8592 16.2316 14.0441 16.2316 16.7385H6.47119H6.47302Z" stroke="#979797" stroke-width="1.5" stroke-linecap="round" stroke-linejoin="round"/>
</g>
</svg>
