<svg width="30" height="30" viewBox="0 0 30 30" fill="none" xmlns="http://www.w3.org/2000/svg">
<g id="Finanzas Icono">
<path id="Vector" d="M15.0541 1.00033C22.9525 1.05543 29.1739 7.34069 29.1144 15.2039C29.0549 22.9194 22.7101 29.1848 15.0254 29.1143C7.11376 29.0438 0.943097 22.7806 1.0004 14.8799C1.05329 7.21287 7.39805 0.947441 15.0541 1.00033ZM13.756 6.38424C13.756 6.77211 13.734 7.13574 13.7626 7.49496C13.8023 7.98861 13.7274 8.29053 13.1081 8.32138C12.6762 8.34342 12.2332 8.54177 11.8321 8.7379C9.41013 9.92796 9.0443 13.053 11.1886 14.6904C11.9401 15.2634 12.8767 15.6028 13.7472 16.0105C14.6574 16.4358 15.6491 16.7179 16.4932 17.2424C17.443 17.8308 17.2623 18.9988 16.2067 19.3867C15.7417 19.5586 15.1621 19.671 14.7059 19.5498C13.7693 19.3008 12.8811 18.8754 12.0172 18.5404C11.4795 19.0826 10.8801 19.6842 10.2696 20.2969C11.1247 21.0175 12.1517 21.542 13.2888 21.8373C13.6458 21.9299 13.7869 22.0886 13.7626 22.4588C13.734 22.8819 13.756 23.3073 13.756 23.7304H16.2618C16.2618 23.3492 16.2838 23.0054 16.2552 22.6682C16.2199 22.2384 16.3235 22.0313 16.8127 21.9343C17.3703 21.8241 17.9278 21.5949 18.4193 21.3062C20.9184 19.8495 20.9779 16.6584 18.5273 15.1289C17.9146 14.7477 17.216 14.4965 16.5394 14.232C15.8034 13.9433 15.0232 13.7538 14.3026 13.4364C13.3043 12.9957 12.8855 12.3081 13.0839 11.6271C13.291 10.9109 14.1505 10.5054 15.1775 10.6398C15.2414 10.6486 15.3075 10.6574 15.367 10.6795C16.2618 11.0188 17.1543 11.3626 18.124 11.7329C18.5736 11.2062 19.1157 10.5715 19.7945 9.7781C18.7278 9.29547 17.7582 8.81724 16.7554 8.42276C16.3962 8.28172 16.2287 8.15169 16.2574 7.75721C16.2904 7.31424 16.264 6.86467 16.264 6.38644H13.7582L13.756 6.38424Z" stroke="#979797" stroke-width="1.5" stroke-linecap="round" stroke-linejoin="round"/>
</g>
</svg>
