<svg width="32" height="28" viewBox="0 0 32 28" fill="none" xmlns="http://www.w3.org/2000/svg">
<g id="Take a photo icon">
<g id="Vector">
<path d="M25.8235 19.754C25.8235 20.2277 25.6353 20.682 25.3003 21.017C24.9654 21.352 24.5111 21.5401 24.0374 21.5401H7.9625C7.4888 21.5401 7.0345 21.352 6.69954 21.017C6.36458 20.682 6.17641 20.2277 6.17641 19.754V9.93051C6.17641 9.45681 6.36458 9.00251 6.69954 8.66755C7.0345 8.33259 7.4888 8.14442 7.9625 8.14442H11.5347L13.3208 5.46527H18.6791L20.4652 8.14442H24.0374C24.5111 8.14442 24.9654 8.33259 25.3003 8.66755C25.6353 9.00251 25.8235 9.45681 25.8235 9.93051V19.754Z" stroke="#898A8D" stroke-width="1.5" stroke-linecap="round" stroke-linejoin="round"/>
<path d="M15.9999 17.9679C17.9728 17.9679 19.5721 16.3686 19.5721 14.3958C19.5721 12.4229 17.9728 10.8236 15.9999 10.8236C14.0271 10.8236 12.4277 12.4229 12.4277 14.3958C12.4277 16.3686 14.0271 17.9679 15.9999 17.9679Z" stroke="#898A8D" stroke-width="1.5" stroke-linecap="round" stroke-linejoin="round"/>
</g>
<path id="Vector_2" d="M0.818115 7.25134V3.23262C0.818115 2.24619 1.61778 1.44652 2.60421 1.44652H6.62293M0.818115 20.6471V24.6658C0.818115 25.6522 1.61778 26.4519 2.60421 26.4519H6.62293M31.1818 6.80481V2.7861C31.1818 1.79966 30.3821 1 29.3957 1H25.3769M31.1818 21.0936V25.1123C31.1818 26.0987 30.3821 26.8984 29.3957 26.8984H25.3769" stroke="#898A8D" stroke-width="1.5" stroke-linecap="round"/>
</g>
</svg>
