<svg width="37" height="33" viewBox="0 0 37 33" fill="none" xmlns="http://www.w3.org/2000/svg">
<g id="Doble">
<path id="Vector" d="M12.4223 20.6088C16.2605 20.6088 19.3719 17.4973 19.3719 13.6591C19.3719 9.82094 16.2605 6.70947 12.4223 6.70947C8.58412 6.70947 5.47266 9.82094 5.47266 13.6591C5.47266 17.4973 8.58412 20.6088 12.4223 20.6088Z" stroke="#898A8D" stroke-width="1.5" stroke-linecap="round" stroke-linejoin="round"/>
<path id="Vector_2" d="M1 32.031C1 25.7229 6.11401 20.6089 12.4221 20.6089C18.7302 20.6089 23.8442 25.7229 23.8442 32.031H1Z" stroke="#898A8D" stroke-width="1.5" stroke-linecap="round" stroke-linejoin="round"/>
<path id="Vector_3" d="M17.6313 7.94965C17.6313 4.11261 20.7409 1 24.581 1C28.4211 1 31.5306 4.10954 31.5306 7.94965C31.5306 11.7898 28.4211 14.8993 24.581 14.8993C22.5581 14.8993 20.7378 14.0367 19.4701 12.6585" stroke="#898A8D" stroke-width="1.5" stroke-linecap="round" stroke-linejoin="round"/>
<path id="Vector_4" d="M19.8628 15.9123C21.2994 15.2585 22.8987 14.8962 24.5777 14.8962C30.8858 14.8962 35.9998 20.0102 35.9998 26.3183H22.6562" stroke="#898A8D" stroke-width="1.5" stroke-linecap="round" stroke-linejoin="round"/>
</g>
</svg>
