<svg width="33" height="42" viewBox="0 0 33 42" fill="none" xmlns="http://www.w3.org/2000/svg">
<g id="Torneo Icono">
<path id="Vector" d="M16.5 40.4428C25.0604 40.4428 32 36.7699 32 32.2391C32 27.7083 25.0604 24.0354 16.5 24.0354C7.93959 24.0354 1 27.7083 1 32.2391C1 36.7699 7.93959 40.4428 16.5 40.4428Z" stroke="white" stroke-width="2" stroke-linecap="round" stroke-linejoin="round"/>
<path id="Vector_2" d="M16.5 32.2392V6.36865" stroke="white" stroke-width="2" stroke-linecap="round" stroke-linejoin="round"/>
<path id="Vector_3" d="M16.5 9.31405V3.21423C16.5 1.51109 18.3434 0.449134 19.8175 1.29927L25.1016 4.35061L30.3856 7.40195C31.8597 8.25209 31.8597 10.3817 30.3856 11.2319L25.1016 14.2832L19.8175 17.3345C18.3434 18.1847 16.5 17.1227 16.5 15.4196V9.31691V9.31405Z" stroke="white" stroke-width="2" stroke-linecap="round" stroke-linejoin="round"/>
</g>
</svg>
