<svg width="16" height="20" viewBox="0 0 16 20" fill="none" xmlns="http://www.w3.org/2000/svg">
<g id="Torneo Icono">
<path id="Vector" d="M8 18.8737C11.866 18.8737 15 17.215 15 15.1688C15 13.1227 11.866 11.4639 8 11.4639C4.13401 11.4639 1 13.1227 1 15.1688C1 17.215 4.13401 18.8737 8 18.8737Z" stroke="#025275" stroke-width="1.5" stroke-linecap="round" stroke-linejoin="round"/>
<path id="Vector_2" d="M8 15.1688V3.48529" stroke="#025275" stroke-width="1.5" stroke-linecap="round" stroke-linejoin="round"/>
<path id="Vector_3" d="M8 4.81552V2.06077C8 1.29161 8.8325 0.812013 9.49825 1.19595L11.8846 2.57397L14.2709 3.95199C14.9367 4.33593 14.9367 5.2977 14.2709 5.68163L11.8846 7.05966L9.49825 8.43768C8.8325 8.82162 8 8.34202 8 7.57286V4.81681V4.81552Z" stroke="#025275" stroke-width="1.5" stroke-linecap="round" stroke-linejoin="round"/>
</g>
</svg>
