<svg width="19" height="19" viewBox="0 0 19 19" fill="none" xmlns="http://www.w3.org/2000/svg">
<path d="M9.5 18C14.1944 18 18 14.1944 18 9.5C18 4.80558 14.1944 1 9.5 1C4.80558 1 1 4.80558 1 9.5C1 14.1944 4.80558 18 9.5 18Z" stroke="#0091D1" stroke-width="1.5" stroke-linecap="round" stroke-linejoin="round"/>
<path d="M8.96967 14.9059C9.26256 15.1988 9.73744 15.1988 10.0303 14.9059L14.8033 10.1329C15.0962 9.84004 15.0962 9.36517 14.8033 9.07227C14.5104 8.77938 14.0355 8.77938 13.7426 9.07227L9.5 13.3149L5.25736 9.07227C4.96447 8.77938 4.48959 8.77938 4.1967 9.07227C3.90381 9.36517 3.90381 9.84004 4.1967 10.1329L8.96967 14.9059ZM10.25 3.81409C10.25 3.39988 9.91421 3.06409 9.5 3.06409C9.08579 3.06409 8.75 3.39988 8.75 3.81409H10.25ZM10.25 14.3756V3.81409H8.75V14.3756H10.25Z" fill="#0091D1"/>
</svg>
