<?xml version="1.0" encoding="UTF-8" standalone="no"?>
<!-- Uploaded to: SVG Repo, www.svgrepo.com, Generator: SVG Repo Mixer Tools -->
<svg width="800px" height="800px" viewBox="0 -15 64 64" version="1.1" xmlns="http://www.w3.org/2000/svg" xmlns:xlink="http://www.w3.org/1999/xlink" xmlns:sketch="http://www.bohemiancoding.com/sketch/ns">
    
    <title>Weather-cloud-wind</title>
    <desc>Created with Sketch.</desc>
    <defs>
</defs>
    <g id="Page-1" stroke="none" stroke-width="1" fill="none" fill-rule="evenodd" sketch:type="MSPage">
        <g id="Weather-cloud-wind" sketch:type="MSLayerGroup" transform="translate(1.000000, 1.000000)" stroke-width="2" stroke="#6B6C6E">
            <g id="Group" sketch:type="MSShapeGroup">
                <path d="M11.5,7 C13.8,2.9 18.3,0 23.4,0 C30.9,0 37,6 37,13.3 C37,14.3 36.9,15.3 36.7,16.3" id="Shape">
</path>
                <path d="M46,25.5 C44.4,27.1 42.2,28.1 39.8,28.1 L10.6,28.1 C4.7,28.1 0,23.4 0,17.6 C0,11.8 4.8,7.1 10.6,7.1 C13.3,7.1 15.8,8.1 17.7,9.8" id="Shape">
</path>
                <path d="M37.1,11.4 C38,11.1 38.9,11 39.8,11 C43.4,11 46.5,13.2 47.8,16.3" id="Shape">
</path>
            </g>
            <path d="M45.4,27.5 C45.4,30.2 47.5,32 50.2,32 C52.9,32 55.1,29.8 55.1,27 C55.1,24.3 52.9,22.1 50.2,22.1 L34.2,22.1" id="Shape" sketch:type="MSShapeGroup">
</path>
            <path d="M52.9,13.3 C52.9,10.8 55.2,9.1 57.6,9.1 C60,9.1 62,11.1 62,13.7 C62,16.2 60,18.2 57.6,18.2 L39.1,18.2" id="Shape" sketch:type="MSShapeGroup">
</path>
        </g>
    </g>
</svg>