<?xml version="1.0" encoding="iso-8859-1"?>
<!-- Uploaded to: SVG Repo, www.svgrepo.com, Generator: SVG Repo Mixer Tools -->
<!DOCTYPE svg PUBLIC "-//W3C//DTD SVG 1.1//EN" "http://www.w3.org/Graphics/SVG/1.1/DTD/svg11.dtd">
<svg fill="#000000" version="1.1" id="Capa_1" xmlns="http://www.w3.org/2000/svg" xmlns:xlink="http://www.w3.org/1999/xlink" 
	 width="800px" height="800px" viewBox="0 0 339.708 339.708"
	 xml:space="preserve">
<g>
	<g>
		<g>
			<g>
				<path d="M324.638,78.176c-10.749-14.939-27.184-26.045-45.072-30.459c-5.999-1.546-12.256-2.333-18.597-2.333
					c-13.03,0-25.16,3.432-35.021,9.89c-15.918,10.017-26.805,27.031-29.123,45.396c-3.051,18.816,4.924,38.794,19.804,49.696
					c8.545,6.461,19.756,10.163,30.757,10.163c8.287,0,15.949-2.047,22.128-5.897c16.879-10.157,24.301-32.3,16.531-49.362
					c-3.981-8.671-11.794-15.429-20.867-18.06c-2.672-0.786-5.374-1.225-8.064-1.314l-0.324,6.14c2.21,0.156,4.468,0.63,6.539,1.36
					c7.104,2.417,13.037,8.019,15.883,15.021c1.417,3.366,2.132,7.022,2.054,10.578c-0.084,3.879-0.744,7.44-2.102,11.148
					c-2.672,7.035-7.872,13.189-14.327,16.921c-11.59,7.035-30.097,4.894-42.021-4.716c-11.764-9.359-17.553-24.725-15.103-40.163
					c2.036-15.166,11.133-29.066,24.373-37.209c6.27-3.972,13.638-6.561,21.33-7.5c3.182-0.411,7.481-0.469,11.625-0.147
					c3.951,0.349,7.95,1.021,11.564,1.937c15.108,3.886,28.968,13.409,38.059,26.175c9.458,12.802,13.932,28.21,12.935,44.622
					c-0.666,15.946-6.131,32.012-15.396,45.255c-9.223,13.289-22.506,24.14-37.434,30.553c-6.833,2.996-14.76,5.17-23.551,6.437
					c-5.429,0.77-11.253,0.901-18.309,1.01l-199.071,2.642l-33.708,1.315l0.123,6.148l224.988,0.15c2.594,0,5.2,0,7.771,0.023
					l4.815,0.03c4.329,0,9.464-0.078,14.676-0.673c9.451-1.17,18.387-3.512,26.523-6.971c16.873-7.014,31.976-19.107,42.525-34.06
					c10.646-14.928,17.036-33.191,17.967-51.368C340.82,111.941,335.392,92.843,324.638,78.176z"/>
			</g>
			<g>
				<path d="M120.531,201.875c0.751-0.03,1.648-0.042,2.516-0.042l6.173,0.071c1.727,0.03,3.333,0.061,4.948,0.061
					c3.167,0,7.362-0.09,11.802-0.732c8.614-1.411,16.78-5.057,23.593-10.532c13.979-11.025,21.329-29.391,18.717-46.784
					c-2.672-17.699-18.029-32.45-35.665-34.317c-9.605-1.195-18.561,1.105-25.313,6.35c-7.299,5.455-12.097,13.664-13.142,22.431
					c-1.384,9.127,2.042,18.75,8.671,24.461c6.561,5.978,17.468,8.395,25.301,5.695c5.768-1.918,10.653-6.548,13.082-12.403
					l-5.572-2.588c-2.06,3.984-5.768,6.93-9.917,7.87c-1.372,0.315-2.609,0.462-3.795,0.462c-4.9,0-9.911-2.111-13.103-5.527
					c-4.335-4.528-5.936-10.301-4.63-16.69c1.18-5.74,4.87-11.43,9.604-14.838c5.035-3.591,10.488-4.837,17.351-3.849
					c12.574,1.63,23.292,12.373,24.953,25.133c2.261,12.808-3.254,27.145-13.763,35.707c-5.176,4.372-11.508,7.338-18.342,8.594
					c-2.804,0.546-5.575,0.648-8.656,0.727l-118.141,3.109c-5.57,0.487-11.343,0.913-17.204,1.346l0.216,6.137L120.531,201.875z"/>
			</g>
		</g>
		<g>
			<path d="M182.132,258.854l-2.042,3.032c-1.64,2.444-9.821,14.91-9.821,20.566c0,6.539,5.327,11.871,11.863,11.871
				c6.539,0,11.871-5.326,11.871-11.871c0-5.656-8.179-18.116-9.83-20.566L182.132,258.854z"/>
		</g>
		<g>
			<path d="M237.436,228.29l-2.041,3.032c-1.64,2.444-9.83,14.904-9.83,20.566c0,6.539,5.332,11.865,11.871,11.865
				s11.866-5.32,11.866-11.865c0-5.662-8.179-18.122-9.824-20.566L237.436,228.29z"/>
		</g>
	</g>
</g>
</svg>