<?xml version="1.0" encoding="UTF-8" standalone="no"?>
<!-- Uploaded to: SVG Repo, www.svgrepo.com, Generator: SVG Repo Mixer Tools -->
<svg width="800px" height="800px" viewBox="0 -11 65 65" version="1.1" xmlns="http://www.w3.org/2000/svg" xmlns:xlink="http://www.w3.org/1999/xlink" xmlns:sketch="http://www.bohemiancoding.com/sketch/ns">
    
    <title>Weather-clouds-rain</title>
    <desc>Created with Sketch.</desc>
    <defs>
</defs>
    <g id="Page-1" stroke="none" stroke-width="1" fill="none" fill-rule="evenodd" sketch:type="MSPage">
        <g id="Weather-clouds-rain" sketch:type="MSLayerGroup" transform="translate(2.000000, 2.000000)" stroke-width="2" stroke="#6B6C6E">
            <g id="Group" sketch:type="MSShapeGroup">
                <g transform="translate(25.000000, 0.000000)" id="Shape">
                    <path d="M6.5,5.9 C8.4,2.4 12,-0.1 16.2,-0.1 C22.3,-0.1 27.3,5 27.3,11.3 C27.3,12.2 27.2,13 27,13.9">
</path>
                    <path d="M0.2,8.1 C1.7,6.8 3.7,6 5.8,6 C8,6 10.1,6.9 11.7,8.3">
</path>
                    <path d="M27.6,10.3 C28.3,10.1 29.1,9.9 29.8,9.9 C33.8,9.9 37,13.1 37,17 C37,20.9 33.8,24.1 29.8,24.1 L15,24.1">
</path>
                </g>
                <g transform="translate(0.000000, 6.000000)" id="Shape">
                    <path d="M9.5,5.7 C11.4,2.3 15,0 19.2,0 C25.3,0 30.3,4.9 30.3,10.9 C30.3,11.7 30.2,12.6 30,13.4">
</path>
                    <path d="M30.6,9.3 C31.3,9.1 32.1,8.9 32.8,8.9 C36.8,8.9 40,12 40,15.9 C40,19.8 36.8,22.9 32.8,22.9 L8.7,22.9 C3.9,22.9 -0.1,19 -0.1,14.3 C-0.1,9.5 3.8,5.7 8.7,5.7 C10.9,5.7 13,6.5 14.6,7.9">
</path>
                </g>
            </g>
            <path d="M13,32 L9,40" id="Shape" sketch:type="MSShapeGroup">
</path>
            <path d="M21,32 L18,38" id="Shape" sketch:type="MSShapeGroup">
</path>
            <path d="M29,32 L25,40" id="Shape" sketch:type="MSShapeGroup">
</path>
            <path d="M44,27 L41,33" id="Shape" sketch:type="MSShapeGroup">
</path>
            <path d="M52,27 L48,35" id="Shape" sketch:type="MSShapeGroup">
</path>
        </g>
    </g>
</svg>