<?xml version="1.0" encoding="UTF-8" standalone="no"?>
<!-- Uploaded to: SVG Repo, www.svgrepo.com, Generator: SVG Repo Mixer Tools -->
<svg width="800px" height="800px" viewBox="0 -3.5 64 64" version="1.1" xmlns="http://www.w3.org/2000/svg" xmlns:xlink="http://www.w3.org/1999/xlink" xmlns:sketch="http://www.bohemiancoding.com/sketch/ns">
    
    <title>Weather-cloud-more-snow</title>
    <desc>Created with Sketch.</desc>
    <defs>
</defs>
    <g id="Page-1" stroke="none" stroke-width="1" fill="none" fill-rule="evenodd" sketch:type="MSPage">
        <g id="Weather-cloud-more-snow" sketch:type="MSLayerGroup" transform="translate(1.000000, 1.000000)" stroke-width="2" stroke="#6B6C6E">
            <g id="Group" sketch:type="MSShapeGroup">
                <path d="M14.7,8.9 C17.6,3.6 23.3,0 29.8,0 C39.3,0 47,7.6 47,17.1 C47,18.4 46.8,19.7 46.6,20.9" id="Shape">
</path>
                <path d="M47.4,14.5 C48.5,14.1 49.7,14 50.9,14 C57,14 62,18.9 62,25 C62,31.1 57,36 50.9,36 L13.6,36 C6.1,36 0,29.9 0,22.5 C0,15 6.1,9 13.6,9 C17.1,9 20.3,10.3 22.7,12.4" id="Shape">
</path>
            </g>
            <path d="M12,39 L12,51" id="Shape" sketch:type="MSShapeGroup">
</path>
            <path d="M18,45 L6,45" id="Shape" sketch:type="MSShapeGroup">
</path>
            <path d="M16.2,40.8 L7.8,49.3" id="Shape" sketch:type="MSShapeGroup">
</path>
            <path d="M16.2,49.3 L7.8,40.8" id="Shape" sketch:type="MSShapeGroup">
</path>
            <path d="M32,44.1 L32,55.9" id="Shape" sketch:type="MSShapeGroup">
</path>
            <path d="M37.9,50 L26.1,50" id="Shape" sketch:type="MSShapeGroup">
</path>
            <path d="M36.1,45.9 L27.8,54.2" id="Shape" sketch:type="MSShapeGroup">
</path>
            <path d="M36.1,54.2 L27.8,45.9" id="Shape" sketch:type="MSShapeGroup">
</path>
            <path d="M51,38 L51,50" id="Shape" sketch:type="MSShapeGroup">
</path>
            <path d="M57,44 L45,44" id="Shape" sketch:type="MSShapeGroup">
</path>
            <path d="M55.2,39.8 L46.8,48.3" id="Shape" sketch:type="MSShapeGroup">
</path>
            <path d="M55.2,48.3 L46.8,39.8" id="Shape" sketch:type="MSShapeGroup">
</path>
        </g>
    </g>
</svg>