<svg width="33" height="31" viewBox="0 0 33 31" fill="none" xmlns="http://www.w3.org/2000/svg">
<g id="Icono Video">
<path id="Vector" d="M31.4846 3.80956V26.696C31.4651 26.7344 31.4349 26.7707 31.4262 26.8113C31.0566 28.4701 29.803 29.5034 28.1279 29.5034C20.2041 29.5055 12.2781 29.5077 4.3543 29.5034C2.42198 29.5034 1.01057 28.073 1.00192 26.1281C0.997598 25.0329 1.00192 23.9355 1.00192 22.8403C1.00192 16.6981 1.00192 10.5559 1.00192 4.41375C1.00192 3.07728 1.56389 2.05892 2.72458 1.40564C3.05312 1.2199 3.43569 1.13237 3.79233 1C12.0944 1 20.3965 1 28.6985 1C28.759 1.02348 28.8195 1.05124 28.8822 1.06618C30.0883 1.35653 30.901 2.08881 31.3246 3.26302C31.3895 3.44236 31.4349 3.62596 31.4911 3.80956H31.4846Z" stroke="#898A8D" stroke-width="1.5" stroke-linecap="round" stroke-linejoin="round"/>
<path id="Vector_2" d="M10.3912 15.225C10.3912 16.5742 10.3869 17.9214 10.3912 19.2707C10.3955 20.8889 11.9366 21.8069 13.3891 21.0512C15.9028 19.7425 18.4058 18.4188 20.9173 17.108C21.6501 16.7258 22.0867 16.1494 22.0932 15.321C22.0996 14.4948 21.6782 13.9077 20.9476 13.517C18.4425 12.172 15.9439 10.8185 13.4366 9.47561C11.9431 8.67714 10.3933 9.59303 10.3912 11.2689C10.389 12.5862 10.3912 13.9056 10.3912 15.2228V15.225Z" stroke="#898A8D" stroke-width="1.5" stroke-linecap="round" stroke-linejoin="round"/>
<path id="Vector_3" d="M6.42493 11.1131V13.0239H4.49045V11.1131H6.42493ZM6.42493 9.61865H4.49045C3.65398 9.61865 2.97745 10.2869 2.97745 11.1131V13.0239C2.97745 13.8501 3.65398 14.5183 4.49045 14.5183H6.42493C7.26141 14.5183 7.93793 13.8501 7.93793 13.0239V11.1131C7.93793 10.2869 7.26141 9.61865 6.42493 9.61865Z" fill="#898A8D"/>
<path id="Vector_4" d="M28.1279 11.1131V13.0175H26.1848V11.1131H28.1279ZM28.1279 9.61865H26.1848C25.3483 9.61865 24.6718 10.2869 24.6718 11.1131V13.0175C24.6718 13.8437 25.3483 14.5119 26.1848 14.5119H28.1279C28.9644 14.5119 29.6409 13.8437 29.6409 13.0175V11.1131C29.6409 10.2869 28.9644 9.61865 28.1279 9.61865Z" fill="#898A8D"/>
<path id="Vector_5" d="M28.1128 17.599V19.5204H26.1891V17.599H28.1128ZM28.1128 16.1046H26.1891C25.3526 16.1046 24.6761 16.7728 24.6761 17.599V19.5204C24.6761 20.3467 25.3526 21.0149 26.1891 21.0149H28.1128C28.9492 21.0149 29.6258 20.3467 29.6258 19.5204V17.599C29.6258 16.7728 28.9492 16.1046 28.1128 16.1046Z" fill="#898A8D"/>
<path id="Vector_6" d="M6.4336 17.6054V19.514H4.48831V17.6054H6.4336ZM6.4336 16.111H4.48831C3.65184 16.111 2.97531 16.7792 2.97531 17.6054V19.514C2.97531 20.3403 3.65184 21.0085 4.48831 21.0085H6.4336C7.27008 21.0085 7.94661 20.3403 7.94661 19.514V17.6054C7.94661 16.7792 7.27008 16.111 6.4336 16.111Z" fill="#898A8D"/>
<path id="Vector_7" d="M5.53226 4.6037C5.5863 4.6037 5.64033 4.6037 5.69221 4.6037H5.69653C5.79379 4.6037 5.89322 4.6037 5.99264 4.6037C6.13314 4.6037 6.27579 4.6037 6.43142 4.6037V6.53154H4.4818C4.4818 6.16006 4.45154 5.78859 4.49045 5.42138C4.53584 4.97518 4.93354 4.64 5.38961 4.60797C5.43716 4.6037 5.48471 4.6037 5.5301 4.6037M5.5301 3.10925C5.43499 3.10925 5.35502 3.11139 5.27721 3.11779C4.06681 3.20746 3.10281 4.11267 2.98393 5.27407C2.94935 5.61993 2.95583 5.9423 2.96448 6.22625C2.96664 6.32872 2.9688 6.4312 2.9688 6.53154C2.9688 7.35776 3.64533 8.02599 4.4818 8.02599H6.43142C7.26789 8.02599 7.94442 7.35776 7.94442 6.53154V4.6037C7.94442 3.77749 7.26789 3.10925 6.43142 3.10925H6.20014H5.99264H5.69437H5.62952C5.5971 3.10925 5.56468 3.10925 5.53226 3.10925H5.5301Z" fill="#898A8D"/>
<path id="Vector_8" d="M28.1365 24.1021C28.1365 24.4543 28.1517 24.7874 28.1322 25.1183C28.1063 25.6029 27.7107 25.9957 27.2201 26.0214C27.0926 26.0278 26.9629 26.0299 26.8332 26.0299C26.6235 26.0299 26.4095 26.0235 26.1869 26.0235V24.0999H28.1344M28.1344 22.6055H26.1869C25.3504 22.6055 24.6739 23.2737 24.6739 24.0999V26.0235C24.6739 26.8497 25.3504 27.5179 26.1869 27.5179C26.2928 27.5179 26.3966 27.5179 26.4982 27.5201C26.6106 27.5201 26.723 27.5222 26.8332 27.5222C27.0104 27.5222 27.1596 27.5179 27.3022 27.5115C28.5688 27.4432 29.5739 26.4462 29.6409 25.1951C29.656 24.9176 29.6517 24.6571 29.6495 24.4052C29.6495 24.3049 29.6474 24.2024 29.6474 24.0978C29.6474 23.2716 28.9708 22.6033 28.1344 22.6033V22.6055Z" fill="#898A8D"/>
<path id="Vector_9" d="M26.831 4.60157C26.9607 4.60157 27.0882 4.60157 27.2179 4.61011C27.7064 4.63573 28.1063 5.02642 28.1322 5.51105C28.1495 5.84196 28.1365 6.17501 28.1365 6.53154H26.1891V4.60797C26.4096 4.60797 26.6235 4.6037 26.8332 4.6037M26.8332 3.10925C26.723 3.10925 26.6127 3.10925 26.5003 3.11139C26.3987 3.11139 26.295 3.11352 26.1891 3.11352C25.3526 3.11352 24.6761 3.78175 24.6761 4.60797V6.53154C24.6761 7.35776 25.3526 8.02599 26.1891 8.02599H28.1365C28.973 8.02599 29.6495 7.35776 29.6495 6.53154C29.6495 6.42693 29.6495 6.32445 29.6517 6.22411C29.656 5.97006 29.6582 5.70959 29.6431 5.43205C29.5739 4.17885 28.5645 3.18398 27.2936 3.11993C27.1531 3.11352 27.0061 3.10925 26.831 3.10925H26.8332Z" fill="#898A8D"/>
<path id="Vector_10" d="M6.42927 24.0935V26.0213C6.20016 26.0213 5.97105 26.0299 5.74626 26.0299C5.60577 26.0299 5.46527 26.0256 5.32478 26.0149C4.8752 25.9765 4.50992 25.588 4.48182 25.1439C4.46021 24.8044 4.4775 24.4607 4.4775 24.0935H6.42711M6.42711 22.5991H4.4775C3.64102 22.5991 2.9645 23.2673 2.9645 24.0935C2.9645 24.2003 2.9645 24.307 2.96234 24.4095C2.95801 24.6721 2.95369 24.9432 2.97314 25.2336C3.04663 26.4227 3.99982 27.3984 5.19293 27.503C5.36152 27.5179 5.53876 27.5243 5.74626 27.5243C5.86946 27.5243 5.99266 27.5222 6.11586 27.5201C6.21961 27.5179 6.32336 27.5158 6.42927 27.5158C7.26575 27.5158 7.94227 26.8476 7.94227 26.0213V24.0935C7.94227 23.2673 7.26575 22.5991 6.42927 22.5991H6.42711Z" fill="#898A8D"/>
</g>
</svg>
